<?xml version="1.0" standalone="yes"?>
<svg xmlns="http://www.w3.org/2000/svg" width="1200" height="630">
<path style="fill:#3690cc; stroke:none;" d="M0 0L0 552L79 553L79 350C85.8228 350 103.997 353.249 109.397 348.972C113.455 345.758 111 330.813 111 326L111 256L207 256L207 153C207 144.276 210.95 122.316 205.397 115.39C198.851 107.226 188.725 109.608 180 111.081C154.48 115.39 128.103 122.439 102 119.829C96.8819 119.318 77.5585 115.541 81.7515 107.015C85.6984 98.9905 100.228 97.0768 108 95.6111C115.919 94.1176 123.992 92.9496 132 92.0502C143.894 90.7141 156.039 89.2469 168 89C157.259 62.635 182.831 44 207 44L207 0L0 0z"/>
<path style="fill:#9aac71; stroke:none;" d="M207 0L207 44C210.317 44.4467 214.701 46.3464 217.91 44.882C222.071 42.9833 225.063 38.0824 229 35.5486C237.98 29.7693 253.495 30.2869 259.786 40.0432C261.52 42.7312 262.661 45.9476 263.561 49C264.835 53.3215 264.997 57.5317 265 62C288.248 55.9852 319.854 54.3571 341 67.7106C345.696 70.6762 349.977 74.4639 353.211 79C355.128 81.6893 356.32 86.8859 359.418 88.3966C364.54 90.8939 375.232 89.7582 381 90.0386C392.336 90.5896 404.184 92.5641 415 96L415 31L562 31L562 0L207 0z"/>
<path style="fill:#3690cc; stroke:none;" d="M562 0L562 31L415 31L415 74L415.318 93.7863L427.847 107.001L415.019 127.004L415 291L398 291L398 132L246 132L246 256L262 256L262 350L378 350L378.996 498L378 537L379.028 551.397L398 553L453 553L680 553L680 495L763 495L763 534L787 535.039L795.397 533.667L796 510L796 450L796 236L937 236L937 517C955.028 507.797 968.575 486.693 979.05 470C984.496 461.322 989.535 452.449 995.347 444C998.206 439.844 1002.75 435.819 1004.41 431C1006.22 425.744 1005 418.507 1005 413L1005 376L1005 252L1109 252L1109 552L1200 552L1200 0L562 0z"/>
<path style="fill:#9aac71; stroke:none;" d="M984 9L985 10L984 9z"/>
<path style="fill:#c0cdd3; stroke:none;" d="M915 67C892.614 67 868.734 69.0121 847 74.7346C841.655 76.142 824.629 80.1754 829.047 88.8951C832.927 96.5519 846.723 96.853 854 97.7145C879.96 100.788 908.537 91.6627 934 87.4352C944.336 85.7192 951.778 92.165 961 95.9884C974.791 101.706 989.275 105.292 1004 107.576C1021.05 110.219 1038.94 111.461 1056 108.195C1064.06 106.653 1072.17 101.095 1080 100.314C1087.34 99.582 1095.63 102.405 1103 102.911C1121.18 104.157 1140.13 105.117 1158 100.522C1166.37 98.3693 1184.11 87.6817 1172.72 77.6489C1156.21 63.1024 1127.18 72.0347 1108.11 66.6821C1103.75 65.4577 1102.82 59.405 1100.61 56.0008C1097.03 50.4606 1091.77 46.8024 1086 43.7847C1062.55 31.5317 1036.89 37.0329 1012 39C1015.97 20.6609 999.084 4.08362 981 10.5486C974.427 12.8985 970.126 21.6436 963.911 22.9329C957.397 24.284 950.041 20.3462 943 21.6157C921.525 25.4877 907.251 46.21 915 67z"/>
<path style="fill:#9aac71; stroke:none;" d="M993 9L994 10L993 9M997 10L998 11L997 10M978 11L979 12L978 11M1005 14L1006 15L1005 14M971 16L972 17L971 16M970 17L971 18L970 17M1007 17L1008 18L1007 17M1008 19L1009 20L1008 19M943 21L944 22L943 21M954 21L955 22L954 21M959 22L960 23L959 22M966 22L967 23L966 22M933 24L934 25L933 24M1010 24L1011 25L1010 24M931 25L932 26L931 25M1011 28L1012 29L1011 28M925 29L926 30L925 29M924 30L925 31L924 30z"/>
<path style="fill:#c0cdd3; stroke:none;" d="M168 89C145.454 89.1866 120.877 92.0239 99 97.6296C93.9006 98.9363 77.7691 102.798 81.1366 110.957C84.3914 118.843 99.8289 119.911 107 119.996C131.806 120.291 155.658 115.191 180 111.081C195.505 108.463 201.048 114.268 215 119.796C225.67 124.024 236.767 126.953 248 129.2C266.761 132.951 288.029 134.524 307 131.561C315.772 130.191 324.526 123.855 333 123.383C361.181 121.812 391.928 134.829 419 120.039C425.919 116.259 432.966 105.374 423.891 99.5323C409.591 90.3259 389.208 91.1979 373 89.2855C369.072 88.822 363.88 90.0176 360.225 88.3966C353.9 85.5916 349.812 72.9064 343 68.3627C322.799 54.8878 287.479 54.3903 265 62C264.998 43.5735 254.446 25.1655 233 32.9691C226.486 35.3393 222.976 42.4331 216.961 44.6721C211.041 46.8753 201.651 43.2654 195 44.4645C175.603 47.9619 157.813 69.5653 168 89z"/>
<path style="fill:#9aac71; stroke:none;" d="M921 33L922 34L921 33M920 34L921 35L920 34M1030 36L1031 37L1030 36M1060 36L1061 37L1060 36M1022 37L1023 38L1022 37M1012 38L1013 39L1012 38M1016 38L1017 39L1016 38M1083 42L1084 43L1083 42M1085 43L1086 44L1085 43M914 44L915 45L914 44M1087 44L1088 45L1087 44M1090 46L1091 47L1090 46M185 47L186 48L185 47M180 50L181 51L180 50M912 51L913 52L912 51M176 53L177 54L176 53M175 54L176 55L175 54M174 55L175 56L174 55M1101 57L1102 58L1101 57M912 59L913 60L912 59M170 60L171 61L170 60M1103 61L1104 62L1103 61M1104 64L1105 65L1104 64M1105 66L1106 67L1105 66M896 67L896 68L899 68L896 67M1124 67L1124 68L1127 68L1124 67M166 68L167 69L166 68M885 68L885 69L888 69L885 68M1135.67 68.3333L1136.33 68.6667L1135.67 68.3333M877 69L878 70L877 69M869.667 70.3333L870.333 70.6667L869.667 70.3333M165 71L166 72L165 71M863 71L864 72L863 71M1155 71L1156 72L1155 71M857 72L858 73L857 72M852 73L853 74L852 73M1163 73L1164 74L1163 73M1166 74L1167 75L1166 74M844 75L845 76L844 75M835 78L836 79L835 78M833 79L834 80L833 79M830 81L831 82L830 81M1175 81L1176 82L1175 81M829 82L830 83L829 82M165 83L166 84L165 83M828 83L829 84L828 83M827 85L827 88L828 88L827 85M933 87L934 88L933 87M944 87L945 88L944 87M922 89L923 90L922 89M949 90L950 91L949 90M1174 90L1175 91L1174 90M136 91L137 92L136 91M745 91L746 92L745 91z"/>
<path style="fill:#c0cdd3; stroke:none;" d="M746 91.5332C741.097 92.6773 737.754 97.0584 733 98.1258C727.184 99.4316 720.051 97.4904 714 98.0008C706.537 98.6303 700.176 102.665 693 103.67C688.688 104.273 684.403 101.892 680 102.105C673.671 102.412 664.239 105.035 662.438 112.004C658.765 126.221 685.06 124.964 693 123.535C706.668 121.076 717.058 127.992 731 127.992C740.612 127.992 750.819 122.145 760 122.934C779.06 124.573 796.483 133.786 815.999 125.521C826.548 121.054 820.909 113.797 813 110.464C806.043 107.533 797.694 109.176 791.21 106.397C786.587 104.414 785.432 98.7874 779.996 97.4189C775.314 96.2404 770.431 98.9352 766 97.6906C758.775 95.6613 754.349 89.585 746 91.5332z"/>
<path style="fill:#9aac71; stroke:none;" d="M753 91L754 92L753 91M911 91L912 92L911 91M128.667 92.3333L129.333 92.6667L128.667 92.3333M756 92L757 93L756 92M832 92L833 93L832 92M953 92L954 93L953 92M121 93L122 94L121 93M758 93L759 94L758 93M834 93L835 94L834 93M955 93L956 94L955 93M114 94L115 95L114 94M739 94L740 95L739 94M894 94L895 95L894 94M108 95L109 96L108 95M887 95L888 96L887 95M103 96L104 97L103 96M416 96L417 97L416 96M774 96L774 97L778 97L774 96M843.667 96.3333L844.333 96.6667L843.667 96.3333M879.667 96.3333L880.333 96.6667L879.667 96.3333M962 96L963 97L962 96M99 97L100 98L99 97M715 97L715 98L719 98L715 97M721 97L721 98L726 98L721 97M764 97L765 98L764 97M781 97L782 98L781 97M850 97L850 98L853 98L850 97M866 97L866 98L870 98L866 97M1166 97L1167 98L1166 97M95 98L96 99L95 98M709 98L710 99L709 98M731 98L732 99L731 98M765 98L766 99L765 98M92 99L93 100L92 99M705 99L706 100L705 99M784 99L785 100L784 99M970 99L971 100L970 99M1161 99L1162 100L1161 99M425 100L426 101L425 100M973 100L974 101L973 100M1077 100L1078 101L1077 100M1082.67 100.333L1083.33 100.667L1082.67 100.333M1158 100L1159 101L1158 100M87 101L88 102L87 101M699 101L700 102L699 101M786 101L787 102L786 101M1075 101L1076 102L1075 101M1090 101L1091 102L1090 101M1153 101L1154 102L1153 101M85 102L86 103L85 102M676 102L677 103L676 102M685.667 102.333L686.333 102.667L685.667 102.333M1098.67 102.333L1099.33 102.667L1098.67 102.333M1147 102L1148 103L1147 102M672 103L673 104L672 103M689 103L690 104L689 103M1110 103L1110 104L1114 104L1110 103M1135 103L1135 104L1139 104L1135 103M669 104L670 105L669 104M788 104L789 105L788 104M667 105L668 106L667 105M992 105L993 106L992 105M1066 105L1067 106L1066 105M789 106L790 107L789 106M997 106L998 107L997 106M80 107L81 108L80 107M802 107L803 108L802 107M1003 107L1004 108L1003 107M1059 107L1060 108L1059 107M807 108L808 109L807 108M1009.67 108.333L1010.33 108.667L1009.67 108.333M1054 108L1055 109L1054 108M189 109L190 110L189 109M196 109L197 110L196 109M810 109L811 110L810 109M1018 109L1018 110L1021 110L1018 109M1045.67 109.333L1046.33 109.667L1045.67 109.333M183 110L184 111L183 110M662 110L663 111L662 110M177 111L178 112L177 111M199 111L200 112L199 111M172 112L173 113L172 112M167 113L168 114L167 113M661.333 113.667L661.667 114.333L661.333 113.667M818 113L819 114L818 113M161 114L162 115L161 114M155.667 115.333L156.333 115.667L155.667 115.333M149.667 116.333L150.333 116.667L149.667 116.333M207 116L207 256L111 256L111 324C111 329.602 113.585 344.208 109.397 348.397C104.552 353.241 85.6225 350 79 350L79 559L204 559L204 629L904 630L904 629L895 629L895 554L937 553L937 520C929.849 525.956 933 541.378 933 550L799 550L799 538L796 538C796 541.721 797.276 548.517 794.397 551.397C789.446 556.347 769.784 553 763 553L763 536L759 536L759 553L743 560L746 552L711.004 553.148L697 560L699 553L684 553L684 499L719 499L719 511L759 511L759 534L763 534L763 495L680 495L680 553L456 553L400 553L379.603 551.397L378 538L378 500L378 350L262 350L262 256L246 256L246 132L262 132L262 131C243.2 130.612 224.141 123.032 207 116M90 117L91 118L90 117M143 117L144 118L143 117M94 118L95 119L94 118M135.667 118.333L136.333 118.667L135.667 118.333M421 118L422 119L421 118M99.6667 119.333L100.333 119.667L99.6667 119.333M125.667 119.333L126.333 119.667L125.667 119.333M415 121L416 122L415 121M666 121L667 122L666 121M700 121L701 122L700 121M704 121L705 122L704 121M414 122C386.842 132.246 360.357 122.392 333 123.194C324.239 123.451 316.144 130.253 307 131L307 132L398 132L398 291L415 291L415 172C415 157.962 419.406 134.883 414 122M668 122L669 123L668 122M697 122L698 123L697 122M706 122L707 123L706 122M821 122L822 123L821 122M672 123L673 124L672 123M693 123L694 124L693 123M708 123L709 124L708 123M820 123L821 124L820 123M680 124L680 125L684 125L680 124M752 124L753 125L752 124M765 124L766 125L765 124M818 124L819 125L818 124M748 125L749 126L748 125M768 125L769 126L768 125M816 125L817 126L816 125M717 126L718 127L717 126M744 126L745 127L744 126M813 126L814 127L813 126M723.667 127.333L724.333 127.667L723.667 127.333M737.667 127.333L738.333 127.667L737.667 127.333M776.667 127.333L777.333 127.667L776.667 127.333M809 127L810 128L809 127M784 128L784 129L787 129L784 128M800 128L800 129L803 129L800 128M275 132L275 133L281 133L275 132M291 132L291 133L296 133L291 132M796 236L796 439L796 502L795 536L800 536L799 504L799 445L799 257L871 256L871 239L933 239L933 429L933 489L932 521C938.865 516.356 937 508.458 937 501L937 450L937 236L796 236z"/>
<path style="fill:#3690cc; stroke:none;" d="M871 239L876 243L871 239z"/>
<path style="fill:#457199; stroke:none;" d="M875 239L876 243L871 240L871 253L890 254C890.632 263.157 891.391 268.313 887 277C902.404 272.965 897.444 246.221 886 240C883.195 243.785 878.736 240.159 875 239z"/>
<path style="fill:#3690cc; stroke:none;" d="M877 239L877 240C880.168 241.504 884.943 244.908 886 240C894.857 247.072 899.469 260.02 894.486 270.981C890.998 278.653 882.658 276.693 887 287L873 288C877.271 276.595 864.036 269.656 864 257L799 257L799 462L799 515L800.028 534.397L810 536L837 536L837 535L832 535L832 534C838.573 531.576 835.765 526.297 834 521C830.363 510.088 827.172 499.054 824 488C818.464 468.71 811.44 442.754 817.746 423C822.401 408.418 834.702 396.228 838.791 382C842.549 368.925 839 349.683 839 336L845 336L844 372L905 371L905 381C920.155 371.521 921.426 357.029 916 341L932 335L932 339L933 339L933 239L877 239z"/>
<path style="fill:#c0cdd3; stroke:none;" d="M811 255L820 249C821.92 251.957 823.696 251.883 827 251C826.696 247.043 824.577 239.189 820 245L819 245C811.13 238.656 811 249.63 811 255M828 252L830 252L830 245L836 248L836 249L833 249C835.496 252.796 847.822 253.575 847.623 247.035C847.428 240.608 840.792 243.163 840 248L836 246L836 245L839 245C833.095 237.208 828.005 245.974 828 252M849 243L849 252L851 252L851 245L853 245L856 252C855.98 246.302 855.576 242.506 849 243z"/>
<path style="fill:#3690cc; stroke:none;" d="M871 243L872 244L871 243z"/>
<path style="fill:#9aac71; stroke:none;" d="M814 245L814 249L816 249L816 245L814 245M822.667 245.333L823.333 245.667L822.667 245.333M843 245L843 249L845 249L845 245L843 245M1005 252L1005 552L985 552L985 553L1005 553L1005 563L1109 563L1109 553L1119 556L1121 556C1126.04 551.242 1138.96 551.242 1144 556L1146 556C1151.04 551.242 1163.96 551.242 1169 556L1171 556C1177.25 550.102 1191.8 553 1200 553L1200 552L1109 552L1109 252L1005 252z"/>
<path style="fill:#c0cdd3; stroke:none;" d="M871 253L865 256C865 260.897 864.343 266.45 866.573 270.985C870.407 278.787 874.757 278.316 874 288L887 287L884 278C888.25 275.998 895.81 261.459 889 260L889 254L871 253z"/>
<path style="fill:#9aac71; stroke:none;" d="M872 253L873 254L872 253z"/>
<path style="fill:#3690cc; stroke:none;" d="M873.667 253.333L874.333 253.667L873.667 253.333z"/>
<path style="fill:#9aac71; stroke:none;" d="M879 254L879 255L887 255L879 254z"/>
<path style="fill:#3690cc; stroke:none;" d="M889 254L890 255L889 254M1081 255L1081 273L1070 273C1070 282.111 1073.47 289.922 1063 293L1063 289L1062 289L1062 293L1055 293L1057 300L1046 301L1047 294L1036 292L1038 273L1009 273L1009 426L1010 426L1028.78 393L1029 372L1030 335C1042.19 336.943 1038 354.559 1038 364C1038 368.135 1036.62 374.926 1042.06 375.852C1047.13 376.715 1052.86 376 1058 376C1062.01 376 1066.01 376.101 1070 375.576C1072.42 375.257 1075.53 375.407 1077.78 374.397C1083.11 371.995 1082.48 364.361 1080.71 360C1077.11 351.122 1063.39 331.997 1074.02 324.97C1084.76 317.865 1087.14 333.475 1089.95 341C1092.65 348.234 1097.64 357.177 1097.65 365C1097.66 374.888 1090.55 383.8 1086 392L1089 390L1089.71 409L1086.27 430L1094 457L1079 459C1084.67 480.852 1098.88 510.922 1086 533C1090.3 536.696 1091.55 541.476 1092 547L1070 550L1067 545L1067 544C1071.03 541.672 1076.7 538.086 1077.36 533C1078.17 526.762 1072.64 517.857 1070.67 512C1065.12 495.527 1058.89 478.959 1055 462L1049 463L1049 436C1042.68 440.435 1029.08 449.724 1027.98 458C1027.13 464.373 1036.68 475.964 1038.35 483C1042.13 498.976 1038.69 514.336 1040.92 530C1041.65 535.076 1045.38 540.058 1047 545C1037.94 548.714 1031.43 552.873 1022 549C1025.6 545.056 1030.42 539.728 1030.41 534C1030.4 527.964 1025.59 520.721 1023.67 515C1018.63 500.026 1012.3 483.632 1010 468L1009 468L1009 552L1015 552L1012 559L1046 552.476L1068 554.996L1106 552L1106 255L1081 255z"/>
<path style="fill:#457199; stroke:none;" d="M864 257L864 266L865 266L864 257z"/>
<path style="fill:#9aac71; stroke:none;" d="M889 259L890 260L889 259z"/>
<path style="fill:#3690cc; stroke:none;" d="M890 259L891 260L890 259z"/>
<path style="fill:#c0cdd3; stroke:none;" d="M1021 272L1028 265L1029 265C1030.9 268.439 1033.61 269.631 1036 266L1032 266L1032 265L1037 264L1038 269L1039 269L1043 261L1046 265L1046 266L1043 266C1046.04 270.56 1050.75 266.073 1046 263L1046 262L1049 262C1046.23 257.833 1040.23 258.78 1037 262C1033.7 259.187 1031.2 259.04 1029 263C1022.01 253.35 1021 266.712 1021 272M1052.3 260.137C1048.26 262.363 1051.17 270.614 1055.4 267.762C1058.51 265.669 1056.65 257.735 1052.3 260.137M1059 269L1060 269L1061 262L1063 262L1064 269C1070.39 260.524 1054.95 255.273 1059 269z"/>
<path style="fill:#3690cc; stroke:none;" d="M171 260L171 273L114 273L114 326C114 331.889 111.977 342.344 114.603 347.682C116.608 351.757 126.266 350 130 350L167 350C171.398 350 178.556 351.36 182.582 349.397C186.561 347.457 189.242 338.618 192 335L186 350L258 350L258 260L246 260L246 263L227 263C229.477 268.549 226.159 270.512 223 275L231 269C232.296 279.199 236.127 291.183 224.985 297.442C220.723 299.837 215.57 298.741 212 302L215 300L211 308C215.104 308 216.362 315.563 216 319L200 309C197.518 316.276 193.685 320.273 187 324L185 320L194 313C186.034 316.311 178.649 318.251 177 307L172 300L164 294L164 293L178.501 287.397L184.275 278.105L195.816 271.273L206 261L171 260z"/>
<path style="fill:#457199; stroke:none;" d="M164 293L164 294L172 300L177 307C176.325 318.535 187.022 317.053 194 313L185 320L187 324C194.304 321.231 198.21 316.531 200 309L216 319L213 307L205 307L205 305C220.144 300.502 220 286.076 220 273L222 275C237.925 263.735 216.975 256.499 206.004 260.742C201.255 262.579 199.493 267.479 195.816 270.57C191.984 273.791 186.815 273.996 183.499 278.105C181.216 280.935 180.664 285.092 177.725 287.397C173.802 290.474 168.291 289.575 164 293z"/>
<path style="fill:#3690cc; stroke:none;" d="M223 260L224 261L223 260M892.333 261.667L892.667 262.333L892.333 261.667z"/>
<path style="fill:#c0cdd3; stroke:none;" d="M124 262L124 272L125 272L130 267C132.254 269.254 134.27 269.407 135 266L136 266L137 269L138 269L140 262L137 264L136 264L135 264L130 264L124 262M143 266L143 267L141 269L146 267C152.836 271.568 152.836 259.432 146 264C143.619 262.372 140.207 263.361 143 266M153 262L153 269L155 269L155 264L157 264L157 269L159 269C158.745 264.393 157.783 262.381 153 262z"/>
<path style="fill:#9aac71; stroke:none;" d="M1024 262L1024 266L1026 266L1026 262L1024 262M1032.67 262.333L1033.33 262.667L1032.67 262.333M1052 262L1052 266L1055 266L1055 262L1052 262M126 264L126 267L128 267L128 264L126 264M132.667 264.333L133.333 264.667L132.667 264.333M143 264L143 265L146 266L143 264M148 264L148 267L150 267L150 264L148 264M891 264L892 265L891 264M890 267L891 268L890 267z"/>
<path style="fill:#3690cc; stroke:none;" d="M890 268L891 269L890 268z"/>
<path style="fill:#c0cdd3; stroke:none;" d="M229 269L221 275C220.999 284.557 218.991 291.41 215 300C230.198 298.791 240.313 282.006 229 269z"/>
<path style="fill:#9aac71; stroke:none;" d="M230 269L231 270L230 269M889 271L890 272L889 271M231 272L232 273L231 272z"/>
<path style="fill:#3690cc; stroke:none;" d="M889 272L890 273L889 272M220 273L220 284L221 284L220 273z"/>
<path style="fill:#c0cdd3; stroke:none;" d="M1046 301L1057 300L1065 277C1060.91 276.64 1057.83 275.066 1054 273.803C1052.03 273.152 1050.06 273.036 1048 273.005C1026.4 272.671 1048.11 291.696 1046 301z"/>
<path style="fill:#457199; stroke:none;" d="M1055 273L1055 274L1066 277L1063 293C1074.07 290.668 1070 282.101 1070 273L1055 273z"/>
<path style="fill:#9aac71; stroke:none;" d="M221 274L222 275L221 274M888 274L889 275L888 274z"/>
<path style="fill:#457199; stroke:none;" d="M1037 274L1036 292L1047 294L1047 293C1037.96 287.727 1040.39 282.085 1037 274z"/>
<path style="fill:#9aac71; stroke:none;" d="M1055 274L1056 275L1055 274M1057 275L1058 276L1057 275z"/>
<path style="fill:#3690cc; stroke:none;" d="M1058 275L1059 276L1058 275z"/>
<path style="fill:#9aac71; stroke:none;" d="M871 276L872 277L871 276M1060.67 276.333L1061.33 276.667L1060.67 276.333z"/>
<path style="fill:#3690cc; stroke:none;" d="M1062 276L1063 277L1062 276z"/>
<path style="fill:#9aac71; stroke:none;" d="M873 277L874 278L873 277M885 277L886 278L885 277z"/>
<path style="fill:#3690cc; stroke:none;" d="M1065 277L1066 278L1065 277z"/>
<path style="fill:#9aac71; stroke:none;" d="M232 278L233 279L232 278M884.333 278.667L884.667 279.333L884.333 278.667M1065 278L1065 283L1066 283L1065 278M1038.33 282.667L1038.67 283.333L1038.33 282.667M874 283L875 284L874 283M885 283L886 284L885 283z"/>
<path style="fill:#3690cc; stroke:none;" d="M1065 283L1066 284L1065 283z"/>
<path style="fill:#9aac71; stroke:none;" d="M220.333 284.667L220.667 285.333L220.333 284.667z"/>
<path style="fill:#3690cc; stroke:none;" d="M1038 284L1039 285L1038 284z"/>
<path style="fill:#9aac71; stroke:none;" d="M1064 285L1065 286L1064 285z"/>
<path style="fill:#3690cc; stroke:none;" d="M1039 286L1040 287L1039 286M1064 286L1065 287L1064 286z"/>
<path style="fill:#9aac71; stroke:none;" d="M873 287L874 288L873 287M875 287L875 288L886 288L875 287M1063 287L1064 288L1063 287z"/>
<path style="fill:#3690cc; stroke:none;" d="M1040 288L1041 289L1040 288M219 289L220 290L219 289M1041 289L1042 290L1041 289z"/>
<path style="fill:#9aac71; stroke:none;" d="M219 290L220 291L219 290z"/>
<path style="fill:#3690cc; stroke:none;" d="M1042 290L1043 291L1042 290z"/>
<path style="fill:#9aac71; stroke:none;" d="M1059 291L1060 292L1059 291z"/>
<path style="fill:#457199; stroke:none;" d="M1056 293L1056 294L1062 291L1056 293z"/>
<path style="fill:#3690cc; stroke:none;" d="M218 292L219 293L218 292M1045 292L1046 293L1045 292z"/>
<path style="fill:#9aac71; stroke:none;" d="M1057 292L1058 293L1057 292M218 293L219 294L218 293M217 295L218 296L217 295M215 298L216 299L215 298M219 299L220 300L219 299M1046 299L1047 300L1046 299z"/>
<path style="fill:#c0cdd3; stroke:none;" d="M214 300L205 306C209.709 309.531 214.914 305.626 214 300z"/>
<path style="fill:#9aac71; stroke:none;" d="M211 302L212 303L211 302M214 302L215 303L214 302z"/>
<path style="fill:#3690cc; stroke:none;" d="M209 303L210 304L209 303M207 304L208 305L207 304z"/>
<path style="fill:#9aac71; stroke:none;" d="M213 304L214 305L213 304z"/>
<path style="fill:#3690cc; stroke:none;" d="M205 305L206 306L205 305M206 307L207 308L206 307z"/>
<path style="fill:#9aac71; stroke:none;" d="M208 308L209 309L208 308z"/>
<path style="fill:#3690cc; stroke:none;" d="M194 311L195 312L194 311z"/>
<path style="fill:#c0cdd3; stroke:none;" d="M1056 436C1055.09 428.757 1056.06 425.182 1060 419L1061 419L1074.98 420.062L1083 432C1081.92 424.007 1074.75 417.864 1075.1 409.996C1075.32 405.259 1079.43 401.578 1082.1 398C1087.2 391.192 1091.85 383.876 1095.12 376C1100.9 362.109 1092.48 346.895 1087.58 334C1084.4 325.66 1079.08 316.729 1070.45 327.213C1063.19 336.028 1081.76 355.642 1081.95 365.576C1082.27 381.661 1068.22 400.754 1061 414C1058.02 419.475 1049.2 430.06 1056 436z"/>
<path style="fill:#9aac71; stroke:none;" d="M1083 323L1084 324L1083 323M1084 326L1085 327L1084 326M1086 331L1087 332L1086 331z"/>
<path style="fill:#457199; stroke:none;" d="M191 335L184 350C188.223 347.604 193.377 339.712 191 335z"/>
<path style="fill:#c0cdd3; stroke:none;" d="M916 341C922.514 364.181 914.961 375.959 894 387C902.351 398.813 914.453 392.349 922.674 382.96C935.411 368.414 933.428 352.477 932 335L916 341M1030 335L1029 392C1040.35 380.995 1038 366.378 1038 352C1038 344.026 1039.98 335.909 1030 335z"/>
<path style="fill:#9aac71; stroke:none;" d="M839 336L840 337L839 336z"/>
<path style="fill:#c0cdd3; stroke:none;" d="M839 381L846 372L843 371L845 336C837.85 336.557 839 342.157 839 348L839 381z"/>
<path style="fill:#9aac71; stroke:none;" d="M1089 339L1090 340L1089 339M917 346L918 347L917 346M1092 347L1093 348L1092 347M844 348L844 352L845 352L844 348M918.333 352.667L918.667 353.333L918.333 352.667M1029 352L1030 353L1029 352z"/>
<path style="fill:#3690cc; stroke:none;" d="M83 353L83 469L84 469C87.295 461.127 92.5428 453.905 99.0039 448.3C102.318 445.425 108.528 442.723 110.397 438.624C114.036 430.642 110.369 417.704 108 410L102 410L102 405L111 405L111 367L109.397 354.028L83 353M114 405C127.893 405 142.145 404.075 156 405.09C161.459 405.49 168.636 408.974 174 406.802C182.739 403.264 192.244 387.648 195 379C181.681 375.798 179.28 364.734 183 353L132 353L115.028 354.603L114 368L114 405z"/>
<path style="fill:#457199; stroke:none;" d="M183 353C170.376 382.916 209.841 379.85 228 380L228 366L223 366L223 377C211.22 377 185.663 381.818 183.369 365C182.831 361.055 184.254 356.849 185 353L183 353z"/>
<path style="fill:#3690cc; stroke:none;" d="M223 377L223 366L258 367L258 353L207 353C201.434 353 191.46 351.069 186.433 353.603C179.157 357.272 183.89 371.578 189.044 374.772C197.508 380.016 213.354 377 223 377M262 353L262 367C273.887 367.041 288.988 374.534 289 357L298 362L299 355L303 353L262 353M307 360L299 360L305 365L304 369L302 369L301 366L295 370L290 366L291 372L286 376L293 377L293 382L297 377L305 377L316 383L316 379L321 378L321 377L317 376C321.364 368.886 328.327 373.64 333 378C321.05 380.907 320.856 409.166 320 420L300 420L304 433C332.563 426.2 363.077 444.771 374 471L375 471L375 365L335 365L335 353C326.421 353 309.216 349.146 307 360z"/>
<path style="fill:#c0cdd3; stroke:none;" d="M346 353C346.01 366.364 355.351 359.894 346 353M353 353L353 355L355 355L353 353M356 353L356 363L362 361L367 362L367 361L363 361L363 360L367 360C365.534 355.583 362.011 355.864 358 357L356 353M353 356L353 363L354 363L355 356L353 356z"/>
<path style="fill:#9aac71; stroke:none;" d="M360 357L360 361L361 361L360 357M276 358C277.651 362.589 280.269 363.74 285 364C283.349 359.411 280.731 358.26 276 358M314 359L314 360L318 360C315.207 364.611 314.751 367.036 317 372C322.231 370.511 326.081 369.477 328 364C323.226 364.494 320.758 366.108 318 370L315 365L325 358L314 359M348 358L348 361L350 361L350 358L348 358M1096 358L1097 359L1096 358M1097 362L1097 368L1098 368L1097 362z"/>
<path style="fill:#3690cc; stroke:none;" d="M932 363C929.761 377.94 918.015 381.399 911.028 392.515C907.853 397.565 910.418 407.153 909.385 413C907.019 426.391 898.171 437.347 897.184 451C895.82 469.877 904 489.723 904 509C904 515.272 904.9 524.854 901 530L901 531C909.25 529.935 927.307 527.691 931.972 519.787C936.826 511.564 933 491.5 933 482L933 399C933 388.628 936.008 372.551 932 363z"/>
<path style="fill:#9aac71; stroke:none;" d="M1029 363L1030 364L1029 363M245 364L245 365L250 365L245 364z"/>
<path style="fill:#c0cdd3; stroke:none;" d="M228 376C232.658 376.865 239.374 378.282 243.927 376.397C247.298 375.001 246.364 371.673 248.665 369.632C253.996 364.905 249.55 375.916 249 377C253.426 376.333 262.926 371.015 255.682 366.179C251.693 363.516 231.958 364.919 229.028 368.603C227.532 370.484 228.008 373.768 228 376z"/>
<path style="fill:#3690cc; stroke:none;" d="M299 365L300 366L299 365z"/>
<path style="fill:#9aac71; stroke:none;" d="M931 366L932 367L931 366M228 367L229 368L228 367M249.667 367.333L250.333 367.667L249.667 367.333z"/>
<path style="fill:#c0cdd3; stroke:none;" d="M261 372L271 372L271 367C266.151 367.004 261.936 366.39 261 372z"/>
<path style="fill:#457199; stroke:none;" d="M248.628 369.082C246.306 370.825 249.03 374.714 251.421 372.918C253.834 371.107 251.064 367.253 248.628 369.082M271 369L274 372L273 369L271 369z"/>
<path style="fill:#9aac71; stroke:none;" d="M309 369C310.117 372.26 311.605 372.998 315 373L309 369M930 369L931 370L930 369M253 370L254 371L253 370M916 370L917 371L916 370M843 371L844 372L843 371z"/>
<path style="fill:#457199; stroke:none;" d="M832 534L832 535C838.221 535 850.031 537.114 855.107 532.697C859.471 528.898 856.721 516.354 857.424 511C859.477 495.364 857.59 476.697 855.833 461C853.787 442.713 848.149 430.791 867 419L881 532C885.567 532 900.026 533.179 902.397 528.566C905.029 523.448 904 514.602 904 509C904 489.88 897.756 471.833 897.259 453C896.964 441.815 904.006 433.158 907.254 423C910.405 413.144 910 403.205 910 393C901.79 395.25 898.954 392.903 893 387C901.964 383.248 905.767 380.817 905 371C892.034 371.036 879.031 372 866 372C860.533 372 852.285 370.466 847.184 372.603C840.891 375.24 835.872 386.433 832.424 392C817.471 416.144 813.755 436.23 818.414 464C821.37 481.62 826.405 499.046 832.001 516C834.022 522.122 839.034 529.961 832 534z"/>
<path style="fill:#9aac71; stroke:none;" d="M247 372L248 373L247 372z"/>
<path style="fill:#3690cc; stroke:none;" d="M262 373L262 440C276.783 428.072 301.66 389.743 275 380L280 376C274.609 371.022 268.735 372.981 262 373z"/>
<path style="fill:#9aac71; stroke:none;" d="M317 376L320 379L333 378C329.398 373.23 320.098 368.292 317 376z"/>
<path style="fill:#3690cc; stroke:none;" d="M228 376L228 380L223 380L223 381C228.163 381.043 233.063 381.8 238 383.347C241.405 384.414 244.902 385.561 248 387.363C258.782 393.636 258.431 403.458 252.302 413C243.49 426.717 230.989 439.291 224 454C227.099 455.58 230.428 458.991 234 459.177C240.875 459.534 255.083 449.196 257.397 442.996C259.597 437.099 258 428.242 258 422L258 375L249 377L250 374C242.129 375.954 236.293 377.974 228 376z"/>
<path style="fill:#9aac71; stroke:none;" d="M844 374L845 375L844 374M1079 374L1080 375L1079 374z"/>
<path style="fill:#457199; stroke:none;" d="M1038 376C1033.54 391.454 1019.74 402.359 1013.43 417C1002.41 442.548 1010.59 471.764 1017.86 497C1020.57 506.428 1023.32 515.897 1027 525C1028.52 528.749 1030.1 533.201 1035 532.408C1042.76 531.152 1041.27 520.959 1041.83 515C1043.05 501.921 1040.47 485.168 1035.55 473C1033.03 466.774 1025.84 460.555 1030.55 454C1033.79 449.497 1043.83 437.543 1049.58 436.77C1053.58 436.232 1058.65 443.617 1062 445.485C1072.29 451.229 1078.52 441.321 1083 434L1083 433L1076.61 420.647L1059 420C1055.35 425.925 1055.72 430.326 1056 437L1054 437C1053.39 422.54 1060.7 416.049 1067.64 404C1072.61 395.364 1075.81 384.434 1079 375L1038 376z"/>
<path style="fill:#9aac71; stroke:none;" d="M229.667 376.333L230.333 376.667L229.667 376.333M309.667 376.333L310.333 376.667L309.667 376.333z"/>
<path style="fill:#3690cc; stroke:none;" d="M1078 376L1079 377L1078 376z"/>
<path style="fill:#c0cdd3; stroke:none;" d="M297 377L293 383L293 379L284 382L293.333 409L298.419 419.397L320 420L326 380L316 379L316 383L297 377z"/>
<path style="fill:#9aac71; stroke:none;" d="M298 377L299 378L298 377M304 377L305 378L304 377z"/>
<path style="fill:#3690cc; stroke:none;" d="M842 377L843 378L842 377z"/>
<path style="fill:#9aac71; stroke:none;" d="M926 377L927 378L926 377M1078 377L1079 378L1078 377M300.667 378.333L301.333 378.667L300.667 378.333M305 378L306 379L305 378z"/>
<path style="fill:#3690cc; stroke:none;" d="M1037 378L1038 379L1037 378z"/>
<path style="fill:#c0cdd3; stroke:none;" d="M195 379L175 408L221 412C208.34 430.189 207.006 443.717 203.787 465C203.117 469.43 197.584 476.956 201.029 481.258C203.918 484.867 214.639 483.959 219 485L222 479C208.85 468.974 217.21 463.067 225.14 452C233.701 440.053 242.517 428.231 250.667 416C254.63 410.051 258.693 403.456 256.347 396.001C254.124 388.935 246.516 385.679 240 383.721C225.045 379.229 209.753 382.512 195 379z"/>
<path style="fill:#3690cc; stroke:none;" d="M196 379L196 380L221 380L196 379z"/>
<path style="fill:#9aac71; stroke:none;" d="M296 379L297 380L296 379z"/>
<path style="fill:#3690cc; stroke:none;" d="M1077 379L1078 380L1077 379z"/>
<path style="fill:#9aac71; stroke:none;" d="M1093 379L1094 380L1093 379M313 380L314 381L313 380M924 380L925 381L924 380z"/>
<path style="fill:#3690cc; stroke:none;" d="M1036 380L1037 381L1036 380z"/>
<path style="fill:#9aac71; stroke:none;" d="M230 381L231 382L230 381z"/>
<path style="fill:#3690cc; stroke:none;" d="M903 381L904 382L903 381M1076.33 381.667L1076.67 382.333L1076.33 381.667z"/>
<path style="fill:#9aac71; stroke:none;" d="M1092 381L1093 382L1092 381M235 382L236 383L235 382M293.667 382.333L294.333 382.667L293.667 382.333M325.333 382.667L325.667 383.333L325.333 382.667z"/>
<path style="fill:#3690cc; stroke:none;" d="M901 382L902 383L901 382z"/>
<path style="fill:#9aac71; stroke:none;" d="M902 382L903 383L902 382z"/>
<path style="fill:#3690cc; stroke:none;" d="M1035 382L1036 383L1035 382z"/>
<path style="fill:#9aac71; stroke:none;" d="M284 383L285 384L284 383z"/>
<path style="fill:#3690cc; stroke:none;" d="M900 383L901 384L900 383M898 384L899 385L898 384M1034 384L1035 385L1034 384M1075 384L1076 385L1075 384M896 385L897 386L896 385z"/>
<path style="fill:#9aac71; stroke:none;" d="M1075 385L1076 386L1075 385M285 386L286 387L285 386z"/>
<path style="fill:#3690cc; stroke:none;" d="M894 386L895 387L894 386z"/>
<path style="fill:#9aac71; stroke:none;" d="M895 386L896 387L895 386z"/>
<path style="fill:#3690cc; stroke:none;" d="M1074.33 386.667L1074.67 387.333L1074.33 386.667z"/>
<path style="fill:#9aac71; stroke:none;" d="M190 387L191 388L190 387z"/>
<path style="fill:#3690cc; stroke:none;" d="M893 387L894 388L893 387z"/>
<path style="fill:#9aac71; stroke:none;" d="M1032 387L1033 388L1032 387M250 388L251 389L250 388M894 388L895 389L894 388M286 389L287 390L286 389M324.333 389.667L324.667 390.333L324.333 389.667M895 389L896 390L895 389M914 389L915 390L914 389z"/>
<path style="fill:#3690cc; stroke:none;" d="M1031 389L1032 390L1031 389M1073 389L1074 390L1073 389z"/>
<path style="fill:#9aac71; stroke:none;" d="M896 390L897 391L896 390M1073 390L1074 391L1073 390z"/>
<path style="fill:#457199; stroke:none;" d="M1088 390C1084.02 395.166 1075.56 403.228 1075.43 410C1075.28 418.079 1082.33 423.779 1083 432L1084 432C1090.07 421.215 1093.04 401.674 1088 390z"/>
<path style="fill:#9aac71; stroke:none;" d="M897 391L898 392L897 391M911 391L912 392L911 391M287 392L288 393L287 392z"/>
<path style="fill:#3690cc; stroke:none;" d="M898 392L899 393L898 392z"/>
<path style="fill:#9aac71; stroke:none;" d="M909 392L910 393L909 392z"/>
<path style="fill:#3690cc; stroke:none;" d="M1072 392L1073 393L1072 392z"/>
<path style="fill:#9aac71; stroke:none;" d="M186 393L187 394L186 393M255 393L256 394L255 393z"/>
<path style="fill:#3690cc; stroke:none;" d="M899 393L900 394L899 393M907 393L908 394L907 393z"/>
<path style="fill:#9aac71; stroke:none;" d="M1072 393L1073 394L1072 393z"/>
<path style="fill:#3690cc; stroke:none;" d="M1085 393L1086 394L1085 393z"/>
<path style="fill:#9aac71; stroke:none;" d="M904 394L905 395L904 394z"/>
<path style="fill:#3690cc; stroke:none;" d="M905 394L906 395L905 394M1071.33 394.667L1071.67 395.333L1071.33 394.667M1084 394L1085 395L1084 394z"/>
<path style="fill:#9aac71; stroke:none;" d="M256 395L257 396L256 395M288 395L289 396L288 395M323.333 395.667L323.667 396.333L323.333 395.667z"/>
<path style="fill:#3690cc; stroke:none;" d="M902.667 395.333L903.333 395.667L902.667 395.333z"/>
<path style="fill:#457199; stroke:none;" d="M288 396L275.305 423L262 443C272.434 435.495 280.396 421.654 285.421 410C287.347 405.532 289.956 400.797 288 396z"/>
<path style="fill:#3690cc; stroke:none;" d="M1083 396L1084 397L1083 396z"/>
<path style="fill:#9aac71; stroke:none;" d="M183 397L184 398L183 397z"/>
<path style="fill:#3690cc; stroke:none;" d="M1070 397L1071 398L1070 397M1082 397L1083 398L1082 397z"/>
<path style="fill:#9aac71; stroke:none;" d="M289 398L290 399L289 398M1070 398L1071 399L1070 398M1081 398L1082 399L1081 398z"/>
<path style="fill:#3690cc; stroke:none;" d="M289 399C286.356 410.133 279.909 420.914 273.105 430C269.834 434.368 264.482 438.836 262.603 444C260.908 448.658 262 455.094 262 460L263 460C268.082 451.875 275.605 444.961 284 440.312C287.869 438.17 297.649 436.277 299.879 432.49C301.311 430.057 299.471 426.387 298.706 424C296.225 416.256 293.858 405.495 289 399z"/>
<path style="fill:#9aac71; stroke:none;" d="M290 400L291 401L290 400z"/>
<path style="fill:#3690cc; stroke:none;" d="M1069 400L1070 401L1069 400M1080 400L1081 401L1080 400M1079 401L1080 402L1079 401z"/>
<path style="fill:#9aac71; stroke:none;" d="M322 402L323 403L322 402z"/>
<path style="fill:#3690cc; stroke:none;" d="M1068.33 402.667L1068.67 403.333L1068.33 402.667M1078 402L1079 403L1078 402z"/>
<path style="fill:#9aac71; stroke:none;" d="M291 403L292 404L291 403M1077 403L1078 404L1077 403z"/>
<path style="fill:#3690cc; stroke:none;" d="M1067 404L1068 405L1067 404M1077 404L1078 405L1077 404z"/>
<path style="fill:#457199; stroke:none;" d="M102 405L102 410L108 410L109 415L110 415L110 405L102 405M115 405L115 410C128.925 410 149.888 406.045 163 410.728C171.912 413.91 178.511 422.772 187 427C183.767 432.283 179.935 444.946 174 447L171 457C157.082 449.677 142.706 444.683 127 450L116 423L115 423L117 437C120.014 437 120.641 439.812 119 442L125 451C119.986 452.264 116.128 454.12 114 459L126 453L137 480L144 490L128 452C138.826 449.9 148.637 449.064 159 453.792C161.964 455.145 167.493 457.119 167.582 461.043C167.785 470.078 156.471 482.664 153 491L156 491C159.012 483.767 163.085 476.786 167.001 470.001C168.435 467.515 170.35 462.78 173.953 464.752C183.661 470.064 181.688 484.115 189 490C187.616 479.723 183.724 470.89 177 463L190 463L179.665 449L188 429L206 442L195 430.79L168 410L186 410C165.877 400.966 136.56 405 115 405z"/>
<path style="fill:#9aac71; stroke:none;" d="M256 405L257 406L256 405M1067 405L1068 406L1067 405z"/>
<path style="fill:#3690cc; stroke:none;" d="M1076 405L1077 406L1076 405z"/>
<path style="fill:#9aac71; stroke:none;" d="M292 406L293 407L292 406M1066 406L1067 407L1066 406z"/>
<path style="fill:#3690cc; stroke:none;" d="M1075 406L1076 407L1075 406z"/>
<path style="fill:#9aac71; stroke:none;" d="M174 407L175 408L174 407z"/>
<path style="fill:#3690cc; stroke:none;" d="M1065 407L1066 408L1065 407z"/>
<path style="fill:#9aac71; stroke:none;" d="M1074.33 407.667L1074.67 408.333L1074.33 407.667M180 408L180 409L185 409L180 408M321.333 408.667L321.667 409.333L321.333 408.667z"/>
<path style="fill:#3690cc; stroke:none;" d="M1064 408L1065 409L1064 408M168 410C177.137 421.225 194.417 432.831 207 440C208.621 429.025 215.083 420.954 221 412L168 410z"/>
<path style="fill:#9aac71; stroke:none;" d="M193.667 409.333L194.333 409.667L193.667 409.333M293 409L294 410L293 409z"/>
<path style="fill:#3690cc; stroke:none;" d="M1063 409L1064 410L1063 409M110 410L111 411L110 410M114 410L120 435C143.759 430.099 156.997 434.993 179 443L187 427C179.917 421.912 172.243 413.672 164 410.728C150.371 405.861 128.479 410 114 410z"/>
<path style="fill:#9aac71; stroke:none;" d="M203 410L203 411L206 411L203 410z"/>
<path style="fill:#3690cc; stroke:none;" d="M1062 410L1063 411L1062 410z"/>
<path style="fill:#9aac71; stroke:none;" d="M253 411L254 412L253 411z"/>
<path style="fill:#3690cc; stroke:none;" d="M1075.33 411.667L1075.67 412.333L1075.33 411.667z"/>
<path style="fill:#9aac71; stroke:none;" d="M294 412L295 413L294 412M1061 412L1062 413L1061 412M220 413L221 414L220 413M1075 413L1076 414L1075 413M219 414L220 415L219 414M251 414L252 415L251 414M320.333 414.667L320.667 415.333L320.333 414.667z"/>
<path style="fill:#3690cc; stroke:none;" d="M1060 414L1061 415L1060 414z"/>
<path style="fill:#9aac71; stroke:none;" d="M218 415L219 416L218 415M295 415L296 416L295 415M1060 415L1061 416L1060 415M217 416L218 417L217 416M1075 416L1076 417L1075 416M249 417L250 418L249 417z"/>
<path style="fill:#3690cc; stroke:none;" d="M1059 417L1060 418L1059 417M1076 417L1077 418L1076 417z"/>
<path style="fill:#9aac71; stroke:none;" d="M296 418L297 419L296 418M1058 418L1059 419L1058 418z"/>
<path style="fill:#3690cc; stroke:none;" d="M1073.67 418.333L1074.33 418.667L1073.67 418.333z"/>
<path style="fill:#9aac71; stroke:none;" d="M1077 418L1078 419L1077 418z"/>
<path style="fill:#3690cc; stroke:none;" d="M850 534L850 535L885 533L885 532L881 532L871.282 467L867 419C846.406 427.72 853.967 445.317 855.833 462C857.346 475.521 857.524 489.42 857.957 503C858.221 511.295 860.178 532.573 850 534z"/>
<path style="fill:#9aac71; stroke:none;" d="M1057 419L1058 420L1057 419M1060 419L1062 421L1060 419z"/>
<path style="fill:#3690cc; stroke:none;" d="M1072 419L1073 420L1072 419z"/>
<path style="fill:#9aac71; stroke:none;" d="M1078 419L1079 420L1078 419M214 420L215 421L214 420M298.667 420.333L299.333 420.667L298.667 420.333z"/>
<path style="fill:#3690cc; stroke:none;" d="M1056 420L1057 421L1056 420M1060 420L1061 421L1060 420z"/>
<path style="fill:#9aac71; stroke:none;" d="M1068 420L1069 421L1068 420z"/>
<path style="fill:#3690cc; stroke:none;" d="M1069.67 420.333L1070.33 420.667L1069.67 420.333M1079 420L1080 421L1079 420z"/>
<path style="fill:#457199; stroke:none;" d="M114 421L115 422L114 421M298 421L300 434L306 449C279.225 451.338 263.474 481.503 268.669 506C273.272 527.707 293.565 544.341 316 543.741C354.74 542.704 377.408 497.055 353.471 466C341.805 450.866 325.862 448 308 448C306.95 440.891 304.088 425.167 298 421z"/>
<path style="fill:#3690cc; stroke:none;" d="M1055 421L1056 422L1055 421M1080 421L1081 422L1080 421M1057 422L1058 423L1057 422M1078 422L1079 423L1078 422M1054 423L1055 424L1054 423z"/>
<path style="fill:#9aac71; stroke:none;" d="M1056 423L1057 424L1056 423M1079 423L1080 424L1079 423z"/>
<path style="fill:#3690cc; stroke:none;" d="M1081 423L1082 424L1081 423z"/>
<path style="fill:#9aac71; stroke:none;" d="M244 424L245 425L244 424M1054 424L1055 425L1054 424z"/>
<path style="fill:#3690cc; stroke:none;" d="M1079 424L1080 425L1079 424z"/>
<path style="fill:#9aac71; stroke:none;" d="M1081 424L1082 425L1081 424z"/>
<path style="fill:#3690cc; stroke:none;" d="M114 426L114 438L118 436L114 426z"/>
<path style="fill:#c0cdd3; stroke:none;" d="M1009 426L1010 427L1009 426z"/>
<path style="fill:#3690cc; stroke:none;" d="M1055.33 426.667L1055.67 427.333L1055.33 426.667z"/>
<path style="fill:#9aac71; stroke:none;" d="M1080 426L1081 427L1080 426M242 427L243 428L242 427z"/>
<path style="fill:#3690cc; stroke:none;" d="M1053 427L1053 432L1054 432L1053 427M1080 427L1081 428L1080 427M1082.33 427.667L1082.67 428.333L1082.33 427.667M1009 428L1010 429L1009 428M188 429L180 445C188.783 451.692 192.188 460.991 204 461C204.015 455.591 206.693 448.171 205.227 443.039C203.557 437.196 193.258 431.223 188 429z"/>
<path style="fill:#9aac71; stroke:none;" d="M1085 429L1084 433L1081 432L1081 433C1082.91 440.918 1072.43 448.552 1065 446.703C1059.02 445.214 1054.21 438.258 1049 435L1049 463L1094 457L1085 429M239 431L240 432L239 431z"/>
<path style="fill:#3690cc; stroke:none;" d="M1055.33 431.667L1055.67 432.333L1055.33 431.667z"/>
<path style="fill:#457199; stroke:none;" d="M131 432L131 433L134 433L131 432z"/>
<path style="fill:#2c3236; stroke:none;" d="M121 435L122 440C143.798 437.065 155.893 438.612 176 448L178 443C159.194 432.023 141.933 430.682 121 435z"/>
<path style="fill:#457199; stroke:none;" d="M149 432L149 433L152 433L149 432M305 432L305 433L308 433L305 432z"/>
<path style="fill:#2c3236; stroke:none;" d="M304 433C305.462 439.694 328.672 438.284 336 441.066C355.143 448.333 371.304 467.235 373 488C377.302 477.748 372.408 465.293 366.239 457C351.518 437.209 327.602 430.017 304 433z"/>
<path style="fill:#457199; stroke:none;" d="M323 432L323 433L326 433L323 432z"/>
<path style="fill:#c0cdd3; stroke:none;" d="M1004 432C982.076 459.198 968.88 493.666 940 515.076C920.342 529.651 899.405 530.933 876 533.17C850.081 535.646 824.033 536.355 798 535.451C785.675 535.023 766.577 538.261 755.133 533.397C748.682 530.654 752.929 518.164 746 513C745.955 529.212 727.142 529.488 715 523L714 523C707.431 528.045 701.356 530.93 693 531L699.509 549L697 560L714 551.024L746 549L743 560C755.852 559.583 756.026 545.568 753 536C794.558 536 835.427 539.193 877 535.17C896.972 533.237 916.058 532.544 934 522.279C950.968 512.57 964.282 495.997 974.999 480C982.491 468.817 988.987 457.017 996.721 446C999.471 442.082 1005.16 437.059 1004 432z"/>
<path style="fill:#3690cc; stroke:none;" d="M1083 432L1084 433L1083 432z"/>
<path style="fill:#457199; stroke:none;" d="M126.667 433.333L127.333 433.667L126.667 433.333M155.667 433.333L156.333 433.667L155.667 433.333M329.667 433.333L330.333 433.667L329.667 433.333M122.667 434.333L123.333 434.667L122.667 434.333M159 434L160 435L159 434z"/>
<path style="fill:#9aac71; stroke:none;" d="M237 434L238 435L237 434z"/>
<path style="fill:#457199; stroke:none;" d="M297 434L298 435L297 434z"/>
<path style="fill:#2c3236; stroke:none;" d="M262 471L263 471C269.744 455.371 285.899 441.526 303 439L302 434C283.18 435.643 262 451.58 262 471z"/>
<path style="fill:#457199; stroke:none;" d="M333 434L334 435L333 434z"/>
<path style="fill:#3690cc; stroke:none;" d="M1082 434L1083 435L1082 434z"/>
<path style="fill:#457199; stroke:none;" d="M162 435L163 436L162 435M294 435L295 436L294 435M336 435L337 436L336 435z"/>
<path style="fill:#9aac71; stroke:none;" d="M1001 435L1002 436L1001 435z"/>
<path style="fill:#3690cc; stroke:none;" d="M1004 435L962.561 496L937.603 521.09L937 553L1005 552L1005 471L1004 435z"/>
<path style="fill:#2c3236; stroke:none;" d="M118 436L115 443L121 441L118 436z"/>
<path style="fill:#457199; stroke:none;" d="M165 436L166 437L165 436z"/>
<path style="fill:#9aac71; stroke:none;" d="M207 436L208 437L207 436z"/>
<path style="fill:#457199; stroke:none;" d="M291 436L292 437L291 436M339 436L340 437L339 436z"/>
<path style="fill:#9aac71; stroke:none;" d="M1003 436L1004 437L1003 436z"/>
<path style="fill:#3690cc; stroke:none;" d="M1051 436L1052 437L1051 436M1054.67 436.333L1055.33 436.667L1054.67 436.333z"/>
<path style="fill:#457199; stroke:none;" d="M115 437L116 438L115 437M135 437L135 438L148 438L135 437M167 437L168 438L167 437M289 437L290 438L289 437M309 437L309 438L322 438L309 437M341 437L342 438L341 437z"/>
<path style="fill:#3690cc; stroke:none;" d="M1052 437L1053 438L1052 437z"/>
<path style="fill:#457199; stroke:none;" d="M114 438L116 444L114 438M129.667 438.333L130.333 438.667L129.667 438.333z"/>
<path style="fill:#3690cc; stroke:none;" d="M123 440L127 450C144.473 445.479 155.095 451.212 171 457C176.49 447.535 171.01 444.474 162 441.066C149.104 436.186 136.176 438.226 123 440z"/>
<path style="fill:#457199; stroke:none;" d="M152.667 438.333L153.333 438.667L152.667 438.333M169 438L170 439L169 438z"/>
<path style="fill:#9aac71; stroke:none;" d="M234 438L235 439L234 438z"/>
<path style="fill:#457199; stroke:none;" d="M287 438L288 439L287 438z"/>
<path style="fill:#3690cc; stroke:none;" d="M305 438L308 448C326.182 448 341.728 451.761 353.471 467C376.994 497.527 354.214 541.088 317 543.486C260.888 547.101 249.592 457.33 306 449C303.505 432.121 286.142 443.914 278 451.174C263.341 464.244 262 475.507 262 494L257 494C257.476 505.091 259.694 516.508 265.696 526C270.768 534.022 276.845 540.446 285 545.384C338.439 577.746 400.463 509.553 361.482 460C356.217 453.307 349.541 447.725 342 443.785C330.165 437.601 317.952 438 305 438z"/>
<path style="fill:#457199; stroke:none;" d="M326.667 438.333L327.333 438.667L326.667 438.333M343 438L344 439L343 438M125.667 439.333L126.333 439.667L125.667 439.333M157 439L158 440L157 439M171 439L172 440L171 439M285 439L286 440L285 439M299 439L300 440L299 439M330.667 439.333L331.333 439.667L330.667 439.333M345 439L346 440L345 439z"/>
<path style="fill:#3690cc; stroke:none;" d="M1079 439L1080 440L1079 439z"/>
<path style="fill:#457199; stroke:none;" d="M109 440L110 447L111 447L109 440M160 440L161 441L160 440M173 440L174 441L173 440z"/>
<path style="fill:#9aac71; stroke:none;" d="M206 440L207 441L206 440z"/>
<path style="fill:#457199; stroke:none;" d="M283 440L284 441L283 440M296 440L297 441L296 440M334 440L335 441L334 440M347 440L348 441L347 440z"/>
<path style="fill:#9aac71; stroke:none;" d="M997 440L998 441L997 440z"/>
<path style="fill:#457199; stroke:none;" d="M107 441L106 443L107 441z"/>
<path style="fill:#2c3236; stroke:none;" d="M83 488L84 488C84.9048 476.923 90.1248 466.37 97.3002 458C102.144 452.349 109.735 449.002 110 441C89.5724 448.745 83 468.444 83 488z"/>
<path style="fill:#457199; stroke:none;" d="M163 441L164 442L163 441M175 441L176 442L175 441z"/>
<path style="fill:#9aac71; stroke:none;" d="M232 441L233 442L232 441z"/>
<path style="fill:#457199; stroke:none;" d="M281 441L282 442L281 441M293 441L294 442L293 441M337 441L338 442L337 441M349 441L350 442L349 441z"/>
<path style="fill:#3690cc; stroke:none;" d="M1078 441L1079 442L1078 441z"/>
<path style="fill:#457199; stroke:none;" d="M117 442L118 443L117 442z"/>
<path style="fill:#3690cc; stroke:none;" d="M114 456L125 451C119.295 437.127 114 445.058 114 456z"/>
<path style="fill:#457199; stroke:none;" d="M165 442L166 443L165 442M291 442L292 443L291 442M339 442L340 443L339 442M350 442L351 443L350 442M167 443L168 444L167 443M278 443L279 444L278 443M289 443L290 444L289 443M341 443L342 444L341 443z"/>
<path style="fill:#3690cc; stroke:none;" d="M1059 443L1060 444L1059 443z"/>
<path style="fill:#457199; stroke:none;" d="M103 444L104 445L103 444M169 444L170 445L169 444M257 444C251.996 448.786 241.63 459.265 234 458.624C230.529 458.333 227.323 455.12 224 454L229 459L229 460C224.721 460 220.694 459.264 218 463C230.453 463 238.452 461.439 249 454.329C252.493 451.974 258.612 448.841 257 444M277 444L278 445L277 444M287 444L288 445L287 444M343 444L344 445L343 444M353 444L354 445L353 444z"/>
<path style="fill:#9aac71; stroke:none;" d="M997 444L998 445L997 444z"/>
<path style="fill:#3690cc; stroke:none;" d="M1060 444L1061 445L1060 444z"/>
<path style="fill:#457199; stroke:none;" d="M171 445L172 446L171 445z"/>
<path style="fill:#2c3236; stroke:none;" d="M180 445C177.294 451.668 183.668 455.151 187.482 460C193.089 467.128 196.547 475.358 199 484L193 484L193 489L233 491L233 490C225.157 489.995 207.524 491.154 201.564 485.297C197.341 481.147 201.233 474.949 199.713 470C196.692 460.168 188.223 450.792 180 445z"/>
<path style="fill:#9aac71; stroke:none;" d="M205 445L206 446L205 445M229 445L230 446L229 445z"/>
<path style="fill:#457199; stroke:none;" d="M285 445L286 446L285 445M345 445L346 446L345 445z"/>
<path style="fill:#3690cc; stroke:none;" d="M1061 445L1062 446L1061 445M1075 445L1076 446L1075 445z"/>
<path style="fill:#457199; stroke:none;" d="M182 446L183 447L182 446M346 446L347 447L346 446z"/>
<path style="fill:#3690cc; stroke:none;" d="M1069.67 446.333L1070.33 446.667L1069.67 446.333z"/>
<path style="fill:#457199; stroke:none;" d="M99 447L100 448L99 447M108 447L107 449L108 447z"/>
<path style="fill:#3690cc; stroke:none;" d="M186 533C169.53 529.224 159.201 543.147 142 543.545C112.277 544.233 87.9038 513.806 94.8997 485C98.5042 470.158 111 462.557 111 447C84.9392 457.079 77.9252 495.957 88.3117 519C101.149 547.48 134.753 561.301 164 549.395C172.497 545.936 180.671 540.544 186 533z"/>
<path style="fill:#457199; stroke:none;" d="M183 447L184 448L183 447M273 447L274 448L273 447M282 447L283 448L282 447M348 447L349 448L348 447M357 447L358 448L357 447z"/>
<path style="fill:#3690cc; stroke:none;" d="M1064.67 447.333L1065.33 447.667L1064.67 447.333z"/>
<path style="fill:#457199; stroke:none;" d="M98 448L99 449L98 448M184 448L185 449L184 448z"/>
<path style="fill:#3690cc; stroke:none;" d="M217 462C212.146 469.946 213.318 474.493 222 479L219 485L200 482C203.672 494.132 231.512 488.079 241 488L241 491L252 491L258 448C243.273 454.554 234.732 466.222 217 462z"/>
<path style="fill:#457199; stroke:none;" d="M272 448L273 449L272 448M281 448L282 449L281 448M349 448L350 449L349 448M358 448L359 449L358 448M97 449L98 450L97 449M185 449L186 450L185 449M271 449L272 450L271 449M359 449L360 450L359 449M96 450L97 451L96 450M104 450L105 451L104 450z"/>
<path style="fill:#3690cc; stroke:none;" d="M128 452C131.221 461.52 135.478 470.759 139.421 480C140.76 483.138 142.049 488.815 145.394 490.397C154.592 494.748 168.027 468.486 168.184 461.043C168.267 457.06 162.974 455.15 160 453.792C149.749 449.113 138.721 449.226 128 452M177 450L173 460L187 460L177 450z"/>
<path style="fill:#457199; stroke:none;" d="M186 450L187 451L186 450M270 450L271 451L270 450M278 450L279 451L278 450z"/>
<path style="fill:#3690cc; stroke:none;" d="M309 450L321 492L307 451C277.41 455.37 261.254 489.755 274.377 516C283.377 534.001 301.533 542.338 321 540.91C355.375 538.388 371.049 497.166 353.452 470C343.301 454.329 326.517 450 309 450z"/>
<path style="fill:#457199; stroke:none;" d="M352 450L353 451L352 450M360 450L361 451L360 450M95 451L96 452L95 451M103 451L104 452L103 451M187 451L188 452L187 451M269 451L270 452L269 451M277 451L278 452L277 451M353 451L354 452L353 451M361 451L362 452L361 451M94 452L95 453L94 452M102 452L103 453L102 452M188 452L189 453L188 452z"/>
<path style="fill:#9aac71; stroke:none;" d="M204.333 452.667L204.667 453.333L204.333 452.667M224 452L225 453L224 452z"/>
<path style="fill:#457199; stroke:none;" d="M268 452L269 453L268 452M276 452L277 453L276 452M354 452L355 453L354 452M362 452L363 453L362 452M93 453L94 454L93 453z"/>
<path style="fill:#3690cc; stroke:none;" d="M114 491L142 491L126 453C108.904 457.925 114 476.497 114 491z"/>
<path style="fill:#457199; stroke:none;" d="M189 453L190 454L189 453M267 453L268 454L267 453M275 453L276 454L275 453M355 453L356 454L355 453M363 453L364 454L363 453z"/>
<path style="fill:#9aac71; stroke:none;" d="M991 453L992 454L991 453z"/>
<path style="fill:#457199; stroke:none;" d="M190 454L191 455L190 454z"/>
<path style="fill:#9aac71; stroke:none;" d="M223 454L224 455L223 454z"/>
<path style="fill:#457199; stroke:none;" d="M266 454L267 455L266 454M274 454L275 455L274 454M356 454L357 455L356 454M364 454L365 455L364 454z"/>
<path style="fill:#3690cc; stroke:none;" d="M222 455L220 460L229 460L222 455z"/>
<path style="fill:#457199; stroke:none;" d="M273 455L274 456L273 455M357 455L358 456L357 455z"/>
<path style="fill:#9aac71; stroke:none;" d="M987 455L988 456L987 455z"/>
<path style="fill:#457199; stroke:none;" d="M98 456L99 457L98 456M272 456L273 457L272 456M358 456L359 457L358 456z"/>
<path style="fill:#9aac71; stroke:none;" d="M989 456L990 457L989 456z"/>
<path style="fill:#457199; stroke:none;" d="M90 457L91 458L90 457M97 457L98 458L97 457M192 457L193 458L192 457M264 457L265 458L264 457M271 457L272 458L271 457M359 457L360 458L359 457M366 457L367 458L366 457z"/>
<path style="fill:#9aac71; stroke:none;" d="M986 457L987 458L986 457z"/>
<path style="fill:#457199; stroke:none;" d="M89 458L90 459L89 458M96 458L97 459L96 458M263 458L264 459L263 458M270 458L271 459L270 458M360 458L361 459L360 458M367 458L368 459L367 458M110 459L111 460L110 459z"/>
<path style="fill:#9aac71; stroke:none;" d="M219 459L220 460L219 459z"/>
<path style="fill:#457199; stroke:none;" d="M269 459L270 460L269 459z"/>
<path style="fill:#3690cc; stroke:none;" d="M1072 459L1072 460L1077 460L1072 459z"/>
<path style="fill:#457199; stroke:none;" d="M1055 462C1057.75 480.665 1065.83 500.36 1072.42 518C1074.53 523.642 1075.86 534.229 1083.95 532.767C1090.69 531.548 1089.99 519.197 1090 514C1090.03 494.321 1085.32 477.506 1079 459L1055 462M88 460L89 461L88 460M109 460C91.3458 478.038 87.8238 507.274 105.184 527C121.104 545.088 157.707 552.07 174 530L173 529C164.8 534.401 157.1 539.741 147 540.826C121.742 543.54 97.1706 523.835 96.0394 498C95.6453 489 97.8676 480.796 102.337 473C104.596 469.059 109.964 464.716 109 460M368 460L369 461L368 460z"/>
<path style="fill:#3690cc; stroke:none;" d="M1065 460L1065 461L1070 461L1065 460z"/>
<path style="fill:#457199; stroke:none;" d="M87 461L88 462L87 461M94 461L95 462L94 461M195 461L196 464L203 462L195 461z"/>
<path style="fill:#9aac71; stroke:none;" d="M203 461L204 462L203 461M218 461L219 462L218 461z"/>
<path style="fill:#457199; stroke:none;" d="M261 461L261 473L262 473L261 461M268 461L269 462L268 461M362 461L363 462L362 461M369 461L370 462L369 461z"/>
<path style="fill:#9aac71; stroke:none;" d="M986 461L987 462L986 461z"/>
<path style="fill:#3690cc; stroke:none;" d="M1057 461L1057 462L1062 462L1057 461z"/>
<path style="fill:#457199; stroke:none;" d="M93 462L94 463L93 462z"/>
<path style="fill:#3690cc; stroke:none;" d="M110 462C93.9385 479.492 90.404 505.979 106.326 524.999C120.963 542.485 156.31 549.316 172 529C165.727 524.632 177.961 523.314 180 520L175 518L176 514C166.661 512.82 152.674 514.118 144.148 510.258C138.634 507.761 140.672 498.259 144 495L144 494L111 494L110 462M197 462L201 472L204 462L197 462z"/>
<path style="fill:#457199; stroke:none;" d="M267 462L268 463L267 462M363 462L364 463L363 462z"/>
<path style="fill:#9aac71; stroke:none;" d="M983 462L984 463L983 462z"/>
<path style="fill:#457199; stroke:none;" d="M86 463L87 464L86 463z"/>
<path style="fill:#3690cc; stroke:none;" d="M156 491L187 491C186.727 485.018 180.456 461.258 171.386 463.752C165.361 465.408 157.626 485.356 156 491M177 463C182.673 472.194 187.525 480.05 189 491L200 491L200 490L192 489L193 484L199 484C194.981 469.844 192.407 463 177 463z"/>
<path style="fill:#9aac71; stroke:none;" d="M216 463L217 464L216 463z"/>
<path style="fill:#457199; stroke:none;" d="M370 463L371 464L370 463M92 464L93 465L92 464M364 464L365 465L364 464M85 465L86 466L85 465M91 465L92 466L91 465M191 465L192 466L191 465M265 465L266 466L265 465M365 465L366 466L365 465M371 465L372 466L371 465M84 467L85 468L84 467M90 467L91 468L90 467z"/>
<path style="fill:#9aac71; stroke:none;" d="M203 467L204 468L203 467z"/>
<path style="fill:#457199; stroke:none;" d="M264 467L265 468L264 467M366 467L367 468L366 467M372 467L373 468L372 467z"/>
<path style="fill:#9aac71; stroke:none;" d="M980 467L981 468L980 467z"/>
<path style="fill:#457199; stroke:none;" d="M257.333 468.667L257.667 469.333L257.333 468.667M83 469L84 470L83 469M89 469L90 470L89 469M199 469L200 470L199 469M263 469L264 470L263 469M367 469L368 470L367 469M373 469L374 470L373 469z"/>
<path style="fill:#2c3236; stroke:none;" d="M257 470L252 490L257 490L257 470z"/>
<path style="fill:#9aac71; stroke:none;" d="M978 470L979 471L978 470z"/>
<path style="fill:#457199; stroke:none;" d="M82 471L82 520L83 520C83 505.477 87.713 484.615 82 471M88 471L89 472L88 471M200 471L201 472L200 471M256 471L257 472L256 471M368 471L369 472L368 471M374 471L374 520L375 520C375 506.212 379.309 483.652 374 471z"/>
<path style="fill:#9aac71; stroke:none;" d="M980 471L981 472L980 471z"/>
<path style="fill:#457199; stroke:none;" d="M87 473L88 474L87 473M195 473L196 474L195 473M255 473L256 474L255 473M369 473L370 474L369 473z"/>
<path style="fill:#9aac71; stroke:none;" d="M200 474L201 475L200 474M978 474L979 475L978 474z"/>
<path style="fill:#457199; stroke:none;" d="M196 475L197 476L196 475M86 476L87 477L86 476M254.333 476.667L254.667 477.333L254.333 476.667M370 476L371 477L370 476M199 477L199 482L200 482L199 477z"/>
<path style="fill:#9aac71; stroke:none;" d="M976 477L977 478L976 477z"/>
<path style="fill:#457199; stroke:none;" d="M197 478L198 479L197 478M85 479L86 480L85 479M253.333 479.667L253.667 480.333L253.333 479.667M371.333 479.667L371.667 480.333L371.333 479.667z"/>
<path style="fill:#9aac71; stroke:none;" d="M972 479L973 480L972 479M974 480L975 481L974 480z"/>
<path style="fill:#457199; stroke:none;" d="M198 482L199 483L198 482z"/>
<path style="fill:#9aac71; stroke:none;" d="M201 482L202 483L201 482M970 482L971 483L970 482z"/>
<path style="fill:#457199; stroke:none;" d="M84.3333 483.667L84.6667 484.333L84.3333 483.667z"/>
<path style="fill:#9aac71; stroke:none;" d="M208.667 483.333L209.333 483.667L208.667 483.333z"/>
<path style="fill:#457199; stroke:none;" d="M372.333 483.667L372.667 484.333L372.333 483.667z"/>
<path style="fill:#9aac71; stroke:none;" d="M972 483L973 484L972 483z"/>
<path style="fill:#457199; stroke:none;" d="M78 484L78 488L79 488L78 484z"/>
<path style="fill:#9aac71; stroke:none;" d="M217 484L218 485L217 484z"/>
<path style="fill:#457199; stroke:none;" d="M252 484L252 487L253 487L252 484M200 485L201 486L200 485M378 486L378 505L379 505L378 486z"/>
<path style="fill:#9aac71; stroke:none;" d="M967 486L968 487L967 486z"/>
<path style="fill:#457199; stroke:none;" d="M205 487L206 488L205 487M257 487L252 490L252 491C254.94 490.773 257.777 490.454 257 487z"/>
<path style="fill:#9aac71; stroke:none;" d="M969 487L970 488L969 487z"/>
<path style="fill:#2c3236; stroke:none;" d="M78 488L78 504L79 504L78 488z"/>
<path style="fill:#457199; stroke:none;" d="M192 488L193 489L192 488M211.667 488.333L212.333 488.667L211.667 488.333z"/>
<path style="fill:#9aac71; stroke:none;" d="M232 489L232 490L236 489L232 489z"/>
<path style="fill:#c0cdd3; stroke:none;" d="M233 490L241 491L241 488L233 490z"/>
<path style="fill:#457199; stroke:none;" d="M195 489L196 490L195 489M223 489L223 490L232 490L223 489z"/>
<path style="fill:#3690cc; stroke:none;" d="M257 490L258 491L257 490z"/>
<path style="fill:#9aac71; stroke:none;" d="M964 490L965 491L964 490M966 491L967 492L966 491z"/>
<path style="fill:#3690cc; stroke:none;" d="M146 494L146 495L150 495L146 494z"/>
<path style="fill:#c0cdd3; stroke:none;" d="M142 496L142 510L170.981 513.228L179.052 518.66L185 515L183 521L190 523L193 515L241 521L241 494C232.673 494.023 217.444 491.298 210 495.028C205.159 497.453 203.996 503.778 199.76 506.079C196.893 507.636 196.295 503.826 196 502C201.001 501.228 203.884 498.522 206 494L158.015 494.189L148.035 504.23L142 496z"/>
<path style="fill:#457199; stroke:none;" d="M229.667 494.333L230.333 494.667L229.667 494.333z"/>
<path style="fill:#2c3236; stroke:none;" d="M231 494L232 495L231 494z"/>
<path style="fill:#457199; stroke:none;" d="M232 494L233 495L232 494z"/>
<path style="fill:#3690cc; stroke:none;" d="M241 494L241 521L213 517.834L202.498 518.028L196 530C201.857 532.242 208.865 532.244 208 540L193 536.068L171 552L171 553L286 553L286 552C266.588 541.625 248.292 517.298 252 494L241 494z"/>
<path style="fill:#457199; stroke:none;" d="M251 499L252 499L252 495L257 495C253.264 493.581 251.615 495.314 251 499z"/>
<path style="fill:#9aac71; stroke:none;" d="M142 495L142 496L145 497L142 495z"/>
<path style="fill:#457199; stroke:none;" d="M144 495L146 500L147 500L144 495z"/>
<path style="fill:#c0cdd3; stroke:none;" d="M146 495L148 499L150 495L146 495z"/>
<path style="fill:#457199; stroke:none;" d="M151 495L149 500L153 495L151 495M201 503L208 495L201 503z"/>
<path style="fill:#2c3236; stroke:none;" d="M252 495C252.016 519.403 265.606 544.163 289 553.647C296.074 556.515 305.488 555 313 555C321.5 555 331.774 556.549 340 554.211C363.888 547.424 374 525.265 374 503L373 503C371.521 536.914 333.191 559.913 302 552.497C275.984 546.311 257.073 521.419 257 495L252 495z"/>
<path style="fill:#9aac71; stroke:none;" d="M960 495L961 496L960 495M141 496L141 510L142 510L141 496M146 496L147 497L146 496M152 496L153 497L152 496M962 496L963 497L962 496M149 497L150 498L149 497z"/>
<path style="fill:#c0cdd3; stroke:none;" d="M737 505L738 505C740.413 506.662 741.392 506.444 743 504L744 504L744 509C752.808 509.763 750.479 496.312 744 501L743 501L737 501L737 497C729.229 499.137 730.48 509.699 737 505z"/>
<path style="fill:#9aac71; stroke:none;" d="M147 498C143.011 508.158 155.533 503.831 147 498M151 498L152 499L151 498z"/>
<path style="fill:#c0cdd3; stroke:none;" d="M699 498C696.175 503.445 691.878 508.002 686 510L686 511L689 512L689 514L683 515C686.039 537.733 715.345 520.66 718 506C711.177 507.743 702.336 506.209 701 498L699 498z"/>
<path style="fill:#9aac71; stroke:none;" d="M145 499L146 500L145 499z"/>
<path style="fill:#457199; stroke:none;" d="M257 499L257 504L258 504L257 499z"/>
<path style="fill:#3690cc; stroke:none;" d="M684 499L684 510C691.116 509.266 695.514 505.026 699 499L684 499M701 499L701 503C707.691 505.131 710.802 508.599 718 506C713.295 521.846 697.548 530.375 684 521L684 553L691.002 553C692.311 552.997 693.678 553.093 694.981 552.941C707.768 551.457 689.395 538.122 693.789 532.603C698.048 527.252 708.772 529.037 714 522C718.969 526.305 739.236 529.255 744.142 523.486C746.471 520.747 745.991 516.34 746 513C752.536 519.915 748.595 533.659 759 534L759 511L719 511L719 499L701 499z"/>
<path style="fill:#9aac71; stroke:none;" d="M196 502C196.547 509.019 202.063 507.453 201 501L196 502M697 501L698 502L697 501M733 501L733 505L734 505L733 501M740 501L740 505L741 505L740 501M746 501L746 505L748 505L748 501L746 501z"/>
<path style="fill:#2c3236; stroke:none;" d="M83 503C83 509.264 81.7622 517.056 83.9938 523C88.8491 535.932 104.157 551.616 118 554.61C126.095 556.36 135.735 555 144 555C150.92 555 159.301 556.266 166 554.363C176.786 551.298 182.518 539.856 192.039 536.328C196.499 534.675 203.395 538.379 208 539L209 534L195 530L201 517L196 516C191.331 532.176 182.447 524.831 170 523L169 528L186 533C160.294 558.703 122.495 561.795 97.1844 533C89.0662 523.764 87.7364 513.547 83 503z"/>
<path style="fill:#9aac71; stroke:none;" d="M703 503L704 504L703 503z"/>
<path style="fill:#457199; stroke:none;" d="M78 504L78 507L79 507L78 504M252 504L252 507L253 507L252 504z"/>
<path style="fill:#9aac71; stroke:none;" d="M705 504L706 505L705 504M708 506L709 507L708 506M953 506L954 507L953 506z"/>
<path style="fill:#457199; stroke:none;" d="M84.3333 507.667L84.6667 508.333L84.3333 507.667M258.333 507.667L258.667 508.333L258.333 507.667M372.333 507.667L372.667 508.333L372.333 507.667z"/>
<path style="fill:#9aac71; stroke:none;" d="M952 507L953 508L952 507M690 508L691 509L690 508M688 509L689 510L688 509M143.667 510.333L144.333 510.667L143.667 510.333z"/>
<path style="fill:#457199; stroke:none;" d="M253.333 510.667L253.667 511.333L253.333 510.667M683 510L683 515L684 515L683 510z"/>
<path style="fill:#2c3236; stroke:none;" d="M684 510L684 515L688 514L684 510z"/>
<path style="fill:#457199; stroke:none;" d="M685 510L686 511L685 510M85.3333 511.667L85.6667 512.333L85.3333 511.667z"/>
<path style="fill:#9aac71; stroke:none;" d="M153.667 511.333L154.333 511.667L153.667 511.333z"/>
<path style="fill:#457199; stroke:none;" d="M259.333 511.667L259.667 512.333L259.333 511.667M371.333 511.667L371.667 512.333L371.333 511.667z"/>
<path style="fill:#9aac71; stroke:none;" d="M687 511L688 512L687 511M162.667 512.333L163.333 512.667L162.667 512.333z"/>
<path style="fill:#457199; stroke:none;" d="M688 512L689 513L688 512z"/>
<path style="fill:#9aac71; stroke:none;" d="M943 512L944 513L943 512M172.667 513.333L173.333 513.667L172.667 513.333M688 513L689 514L688 513M942 513L943 514L942 513z"/>
<path style="fill:#457199; stroke:none;" d="M86.3333 514.667L86.6667 515.333L86.3333 514.667M254 514L255 515L254 514M370.333 514.667L370.667 515.333L370.333 514.667M685 514L686 515L685 514z"/>
<path style="fill:#9aac71; stroke:none;" d="M686 514L687 515L686 514M944 514L945 515L944 514z"/>
<path style="fill:#457199; stroke:none;" d="M183 515L176 524L176 525C181.333 524.098 183.059 519.636 185 515L183 515z"/>
<path style="fill:#9aac71; stroke:none;" d="M192 517L195 516L192 517z"/>
<path style="fill:#457199; stroke:none;" d="M260 515L261 516L260 515z"/>
<path style="fill:#9aac71; stroke:none;" d="M182 516L183 517L182 516M184 516L185 517L184 516z"/>
<path style="fill:#457199; stroke:none;" d="M193 516L188 528C192.628 526.442 193.965 520.495 193 516z"/>
<path style="fill:#3690cc; stroke:none;" d="M194.667 516.333L195.333 516.667L194.667 516.333z"/>
<path style="fill:#457199; stroke:none;" d="M198 516L198 517L202 518L202 517L198 516z"/>
<path style="fill:#9aac71; stroke:none;" d="M201 516L202 517L201 516M938 516L939 517L938 516z"/>
<path style="fill:#457199; stroke:none;" d="M87 517L88 518L87 517z"/>
<path style="fill:#9aac71; stroke:none;" d="M175 517L176 518L175 517z"/>
<path style="fill:#c0cdd3; stroke:none;" d="M194 517L192 524L193 524L194 517z"/>
<path style="fill:#457199; stroke:none;" d="M195.333 517.667L195.667 518.333L195.333 517.667z"/>
<path style="fill:#9aac71; stroke:none;" d="M210.667 517.333L211.333 517.667L210.667 517.333z"/>
<path style="fill:#457199; stroke:none;" d="M255 517L256 518L255 517M261 517L262 518L261 517M369 517L370 518L369 517z"/>
<path style="fill:#9aac71; stroke:none;" d="M181 518L182 519L181 518M183 518L184 519L183 518M191.333 518.667L191.667 519.333L191.333 518.667M193 518L194 519L193 518M219.667 518.333L220.333 518.667L219.667 518.333z"/>
<path style="fill:#457199; stroke:none;" d="M88 519L89 520L88 519z"/>
<path style="fill:#9aac71; stroke:none;" d="M180 519L181 520L180 519z"/>
<path style="fill:#457199; stroke:none;" d="M200.333 519.667L200.667 520.333L200.333 519.667z"/>
<path style="fill:#9aac71; stroke:none;" d="M229.667 519.333L230.333 519.667L229.667 519.333z"/>
<path style="fill:#457199; stroke:none;" d="M256.333 519.667L256.667 520.333L256.333 519.667M368 519L369 520L368 519z"/>
<path style="fill:#9aac71; stroke:none;" d="M182 520L183 521L182 520z"/>
<path style="fill:#457199; stroke:none;" d="M194 520L195 521L194 520z"/>
<path style="fill:#9aac71; stroke:none;" d="M238.667 520.333L239.333 520.667L238.667 520.333z"/>
<path style="fill:#457199; stroke:none;" d="M262 520L263 521L262 520z"/>
<path style="fill:#3690cc; stroke:none;" d="M374 520C369.959 533.734 357.126 545.242 345 552L345 553C351.449 553 368.275 556.029 373.397 551.972C375.564 550.255 374.995 546.42 375 544C375.015 536.794 376.798 526.668 374 520z"/>
<path style="fill:#457199; stroke:none;" d="M89 521L90 522L89 521z"/>
<path style="fill:#3690cc; stroke:none;" d="M180 526L188 528C189.515 521.491 181.937 519.677 180 526z"/>
<path style="fill:#9aac71; stroke:none;" d="M190 521L191 522L190 521M192 521L193 522L192 521z"/>
<path style="fill:#457199; stroke:none;" d="M367 521L368 522L367 521z"/>
<path style="fill:#9aac71; stroke:none;" d="M707 521L708 522L707 521M745 521L746 522L745 521z"/>
<path style="fill:#457199; stroke:none;" d="M83 522L84 523L83 522M193 522L194 523L193 522M199 522L200 523L199 522M257 522L258 523L257 522M263 522L264 523L263 522M373 522L374 523L373 522z"/>
<path style="fill:#9aac71; stroke:none;" d="M714 522L715 523L714 522z"/>
<path style="fill:#3690cc; stroke:none;" d="M83 523L83 553L112 553L112 552C98.8194 544.655 92.5116 533.908 83 523z"/>
<path style="fill:#457199; stroke:none;" d="M90 523L91 524L90 523M173 523L174 524L173 523z"/>
<path style="fill:#9aac71; stroke:none;" d="M189 523L190 524L189 523z"/>
<path style="fill:#457199; stroke:none;" d="M366 523L367 524L366 523z"/>
<path style="fill:#9aac71; stroke:none;" d="M713 523L714 524L713 523M931 523L932 524L931 523z"/>
<path style="fill:#3690cc; stroke:none;" d="M932 523C921.794 528.934 909.849 532.755 898 533L898 534C904.623 536.011 903 543.276 903 549L872 549C866.537 549 861.194 549.959 857 546L856 549L811 549C812.016 542.571 817.517 541.127 823 539L823 538L799 538L799 550L933 550L932 523z"/>
<path style="fill:#457199; stroke:none;" d="M84 524L85 525L84 524M198 524L199 525L198 524M258 524L259 525L258 524M372 524L373 525L372 524z"/>
<path style="fill:#9aac71; stroke:none;" d="M712 524L713 525L712 524M716 524L717 525L716 524M744 524L745 525L744 524M929 524L930 525L929 524z"/>
<path style="fill:#457199; stroke:none;" d="M91 525L92 526L91 525M169 525L170 526L169 525M265 525L266 526L265 525M365 525L366 526L365 525z"/>
<path style="fill:#9aac71; stroke:none;" d="M724 525L724 526L727 526L724 525M741.667 525.333L742.333 525.667L741.667 525.333M922 525L923 526L922 525M927 525L928 526L927 525z"/>
<path style="fill:#457199; stroke:none;" d="M85 526L86 527L85 526M183 526L184 527L183 526M197 526L198 527L197 526M259 526L260 527L259 526M371 526L372 527L371 526z"/>
<path style="fill:#9aac71; stroke:none;" d="M690 526L690 527L694 527L690 526M751 526L752 527L751 526M925 526L926 527L925 526z"/>
<path style="fill:#457199; stroke:none;" d="M86 527L87 528L86 527M186 527L187 528L186 527M266 527L267 528L266 527M370 527L371 528L370 527M93 528L94 529L93 528M169 528L170 529L169 528M267 528L268 529L267 528M363 528L364 529L363 528z"/>
<path style="fill:#9aac71; stroke:none;" d="M706 528L707 529L706 528M913 528L914 529L913 528M920 528L921 529L920 528z"/>
<path style="fill:#457199; stroke:none;" d="M87 529L88 530L87 529M195 529L196 530L195 529M261 529L262 530L261 529M369 529L370 530L369 529z"/>
<path style="fill:#9aac71; stroke:none;" d="M909 529L910 530L909 529M917 529L918 530L917 529z"/>
<path style="fill:#457199; stroke:none;" d="M176 530L177 531L176 530M196 530L197 531L196 530z"/>
<path style="fill:#9aac71; stroke:none;" d="M700 530L701 531L700 530M904 530L905 531L904 530M914 530L915 531L914 530z"/>
<path style="fill:#457199; stroke:none;" d="M95 531L96 532L95 531M180 531L181 532L180 531M200 531L201 532L200 531M262 531L263 532L262 531M269 531L270 532L269 531M361 531L362 532L361 531z"/>
<path style="fill:#3690cc; stroke:none;" d="M891 531L891 532L897 532L891 531z"/>
<path style="fill:#9aac71; stroke:none;" d="M910 531L911 532L910 531z"/>
<path style="fill:#3690cc; stroke:none;" d="M1038 531L1039 532L1038 531z"/>
<path style="fill:#c0cdd3; stroke:none;" d="M1047 545L1041 531C1032.71 532.896 1031.2 534.945 1026.91 542C1025.21 544.798 1022.26 548.729 1026.17 551.212C1030.98 554.269 1042.61 547.339 1047 545z"/>
<path style="fill:#457199; stroke:none;" d="M89 532L90 533L89 532M96 532L97 533L96 532M183 532L184 533L183 532M203 532L204 533L203 532M263 532L264 533L263 532M360 532L361 533L360 532M367 532L368 533L367 532z"/>
<path style="fill:#9aac71; stroke:none;" d="M692 532L692 535L693 535L692 532M885 532L886 533L885 532M1035 532L1036 533L1035 532M1041 532L1042 533L1041 532z"/>
<path style="fill:#457199; stroke:none;" d="M207 533L208 534L207 533z"/>
<path style="fill:#9aac71; stroke:none;" d="M873 533L874 534L873 533M897 533L898 534L897 533M1078 533L1079 534L1078 533z"/>
<path style="fill:#c0cdd3; stroke:none;" d="M1068 543L1070 550C1075.19 549.036 1086.4 550.107 1090.22 546.142C1094.86 541.323 1088.45 532.955 1083 533.063C1076.71 533.188 1072.65 539.456 1068 543z"/>
<path style="fill:#9aac71; stroke:none;" d="M766 534L767 535L766 534M859 534L860 535L859 534M885 534L886 535L885 534z"/>
<path style="fill:#3690cc; stroke:none;" d="M886 534L886 535L893 535L886 534z"/>
<path style="fill:#457199; stroke:none;" d="M857 544L857 537C846.122 537.225 812.176 533.76 811 549L844 549C848.788 549 854.115 550.384 857 546C859.989 550.145 865.313 549 870 549L903 549L901.972 535.603L890 534.83L857 544M191 535L192 536L191 535M193 535L194 536L193 535M265 535L266 536L265 535z"/>
<path style="fill:#9aac71; stroke:none;" d="M791 535L792 536L791 535z"/>
<path style="fill:#3690cc; stroke:none;" d="M874 535L874 536L880 536L874 535z"/>
<path style="fill:#457199; stroke:none;" d="M92 536L93 537L92 536M190 536L191 537L190 536M197 536L198 537L197 536M266 536L267 537L266 536M364 536L365 537L364 536z"/>
<path style="fill:#9aac71; stroke:none;" d="M753 536L754 537L753 536z"/>
<path style="fill:#3690cc; stroke:none;" d="M754 536L754 553L759 553L759 536L754 536M763 536L763 553L786 553L794.972 551.397L796 538L763 536z"/>
<path style="fill:#9aac71; stroke:none;" d="M766 536L767 537L766 536z"/>
<path style="fill:#3690cc; stroke:none;" d="M857 537L857 544L874 537L857 537z"/>
<path style="fill:#457199; stroke:none;" d="M93 537L94 538L93 537M189 537L190 538L189 537M200 537L201 538L200 537M208 537L209 538L208 537M267 537L268 538L267 537M363 537L364 538L363 537z"/>
<path style="fill:#9aac71; stroke:none;" d="M791 537L792 538L791 537M837 537L838 538L837 537z"/>
<path style="fill:#3690cc; stroke:none;" d="M838 537L838 538L851 538L838 537z"/>
<path style="fill:#9aac71; stroke:none;" d="M1044 537L1045 538L1044 537z"/>
<path style="fill:#457199; stroke:none;" d="M94 538L95 539L94 538M188 538L189 539L188 538M204 538L205 539L204 538M268 538L269 539L268 538M362 538L363 539L362 538M95 539L96 540L95 539M207 539L208 540L207 539M361 539L362 540L361 539M96 540L97 541L96 540M104 540L105 541L104 540M352 540L353 541L352 540M360 540L361 541L360 540z"/>
<path style="fill:#9aac71; stroke:none;" d="M1055 540L1056 544L1058 544L1059 540L1055 540M1130 541L1133 544L1134 540L1130 541z"/>
<path style="fill:#457199; stroke:none;" d="M97 541L98 542L97 541M105 541L106 542L105 541M177 541L178 542L177 541M279 541L280 542L279 541M351 541L352 542L351 541M359 541L360 542L359 541z"/>
<path style="fill:#9aac71; stroke:none;" d="M754.333 541.667L754.667 542.333L754.333 541.667z"/>
<path style="fill:#457199; stroke:none;" d="M98 542L99 543L98 542M176 542L177 543L176 542M280 542L281 543L280 542M358 542L359 543L358 542z"/>
<path style="fill:#9aac71; stroke:none;" d="M1091 542L1092 543L1091 542z"/>
<path style="fill:#457199; stroke:none;" d="M99 543L100 544L99 543M108 543L109 544L108 543M183 543L184 544L183 543M273 543L274 544L273 543M348 543L349 544L348 543M357 543L358 544L357 543z"/>
<path style="fill:#9aac71; stroke:none;" d="M1046 543L1047 544L1046 543z"/>
<path style="fill:#457199; stroke:none;" d="M100 544L101 545L100 544M109 544L110 545L109 544M173 544L174 545L173 544M182 544L183 545L182 544M274 544L275 545L274 544M283 544L284 545L283 544M347 544L348 545L347 544M356 544L357 545L356 544z"/>
<path style="fill:#9aac71; stroke:none;" d="M1067 544L1068 545L1067 544z"/>
<path style="fill:#457199; stroke:none;" d="M111 545L112 546L111 545M171 545L172 546L171 545M181 545L182 546L181 545M275 545L276 546L275 545M285 545L286 546L285 545M345 545L346 546L345 545z"/>
<path style="fill:#9aac71; stroke:none;" d="M1068 545L1069 546L1068 545M1091.33 545.667L1091.67 546.333L1091.33 545.667M699 546L700 547L699 546z"/>
<path style="fill:#457199; stroke:none;" d="M104 547L105 548L104 547M114 547L115 548L114 547M168 547L169 548L168 547M178 547L179 548L178 547M278 547L279 548L278 547M288 547L289 548L288 547M342 547L343 548L342 547M352 547L353 548L352 547z"/>
<path style="fill:#9aac71; stroke:none;" d="M1041 547L1042 548L1041 547M1088 547L1089 548L1088 547z"/>
<path style="fill:#457199; stroke:none;" d="M116 548L117 549L116 548M166 548L167 549L166 548M177 548L178 549L177 548M279 548L280 549L279 548M290 548L291 549L290 548M340 548L341 549L340 548z"/>
<path style="fill:#9aac71; stroke:none;" d="M1022 548L1023 549L1022 548M1081 548L1082 549L1081 548z"/>
<path style="fill:#457199; stroke:none;" d="M107 549L108 550L107 549M119 549L120 550L119 549M163 549L164 550L163 549M175 549L176 550L175 549M281 549L282 550L281 549M293 549L294 550L293 549M337 549L338 550L337 549M349 549L350 550L349 549z"/>
<path style="fill:#3690cc; stroke:none;" d="M745 549L733 552L733 553C736.5 553 746.251 554.57 745 549z"/>
<path style="fill:#9aac71; stroke:none;" d="M754 549L755 550L754 549M1072.67 549.333L1073.33 549.667L1072.67 549.333z"/>
<path style="fill:#457199; stroke:none;" d="M121 550L122 551L121 550M161 550L162 551L161 550M295 550L296 551L295 550M335 550L336 551L335 550z"/>
<path style="fill:#9aac71; stroke:none;" d="M714 550L715 551L714 550z"/>
<path style="fill:#3690cc; stroke:none;" d="M710 552L710 553L729 553C723.499 550.67 715.637 550.005 710 552z"/>
<path style="fill:#9aac71; stroke:none;" d="M716 550L717 551L716 550M742 550L743 551L742 550z"/>
<path style="fill:#457199; stroke:none;" d="M110 551L111 552L110 551M124 551L125 552L124 551M158 551L159 552L158 551M172 551L173 552L172 551M284 551L285 552L284 551M298 551L299 552L298 551M332 551L333 552L332 551M346 551L347 552L346 551z"/>
<path style="fill:#9aac71; stroke:none;" d="M721.667 551.333L722.333 551.667L721.667 551.333M738 551L739 552L738 551z"/>
<path style="fill:#457199; stroke:none;" d="M0 552L0 630L252 630L252 629L204 629L204 559L79 559L79 553L0 552M83 553L83 555L117 555C109.866 549.536 91.9016 553 83 553M128.667 552.333L129.333 552.667L128.667 552.333M153 552L153 553L156 553L153 552M166 554L166 555L204 555L204 553L166 554M286 552L287 553L286 552M301 552L301 553L304 553L301 552M327.667 552.333L328.333 552.667L327.667 552.333M344 552L345 553L344 552z"/>
<path style="fill:#9aac71; stroke:none;" d="M1028 552L1029 553L1028 552M1042 553L1043 556L1054 553L1042 553M1087 552L1087 553L1092 553L1087 552M1093 552L1093 556L1097 555L1097 553L1093 552z"/>
<path style="fill:#457199; stroke:none;" d="M133 553L133 554L150 554L133 553M288 553L289 554L288 553M307 553L307 554L311 554L307 553z"/>
<path style="fill:#9aac71; stroke:none;" d="M311 553L311 554L320 554L311 553z"/>
<path style="fill:#457199; stroke:none;" d="M320 553L320 554L324 554L320 553M342 553L343 554L342 553z"/>
<path style="fill:#c0cdd3; stroke:none;" d="M895 554L895 629L1200 630L1200 553C1192.84 553 1175.47 549.809 1171 556L1169 556C1165.44 551.058 1149.56 551.058 1146 556L1144 556C1140.44 551.058 1124.56 551.058 1121 556L1119 556C1116.47 552.493 1113.06 553.003 1109 553L1109 563L1005 563L1005 553L895 554M1009 553C1009 556.363 1008.28 559.204 1012 560L1014 554L1009 553z"/>
<path style="fill:#9aac71; stroke:none;" d="M1040 553L1041 554L1040 553z"/>
<path style="fill:#c0cdd3; stroke:none;" d="M1025 559L1025 560L1106 560L1106 553L1093 556C1091.89 550.835 1084.95 553.413 1081 553.917C1067.87 555.588 1054.61 551.786 1043 556L1042 553L1025 559z"/>
<path style="fill:#9aac71; stroke:none;" d="M1083 553L1084 554L1083 553z"/>
<path style="fill:#457199; stroke:none;" d="M290 554L291 555L290 554M339.667 554.333L340.333 554.667L339.667 554.333z"/>
<path style="fill:#9aac71; stroke:none;" d="M1012 554L1013 555L1012 554M1038 554L1039 555L1038 554M1074 554L1074 555L1077 555L1074 554z"/>
<path style="fill:#457199; stroke:none;" d="M119 555L119 556L164 556C152.299 551.09 131.742 555 119 555M293 555L293 556L338 556C326.299 551.09 305.742 555 293 555z"/>
<path style="fill:#9aac71; stroke:none;" d="M1058 555L1058 556L1061 556L1058 555M1068 555L1068 556L1071 556L1068 555M1011.33 556.667L1011.67 557.333L1011.33 556.667M1033 556L1034 557L1033 556M1030 557L1031 558L1030 557M1027 558L1028 559L1027 558z"/>
<path style="fill:#457199; stroke:none;" d="M310 559L310 560L321 560L310 559z"/>
<path style="fill:#9aac71; stroke:none;" d="M1005 564L1006 568L1008 568L1009 564L1005 564M1030 564L1031 568L1033 568L1034 564L1030 564M1055 564L1059 568L1059 564L1055 564M1080 564L1081 568L1083 568L1084 564L1080 564M1105 565L1105 567L1109 568L1109 564L1105 565M1130 565L1130 567L1134 568L1134 564L1130 565M1155 565L1155 567L1159 568L1159 564L1155 565M1181 564L1182 568L1184 568L1185 567L1185 565L1181 564M1017 577L1017 579L1022 579L1022 577L1017 577M1043 576L1043 580L1047 579L1047 577L1043 576M1068 576L1068 580L1072 579L1072 577L1068 576M1093 576L1093 580L1097 579L1097 577L1093 576M1119 576L1118 580L1122 579L1122 577L1121 576L1119 576M1144 576L1143 580L1147 579L1147 577L1146 576L1144 576M1168 577L1168 579L1172 580L1172 576L1168 577M1194 576L1193 577L1193 579L1197 580L1196 576L1194 576M1005 588L1005 592L1009 592L1005 588M1030 588L1030 592L1034 592L1030 588M1055 589L1055 591L1059 592L1059 588L1055 589M1080 589L1080 591L1084 592L1084 588L1080 589M1105 589L1105 591L1109 592L1109 588L1105 589M1130 589L1130 591L1134 592L1134 588L1130 589M1155 589L1155 591L1159 592L1159 588L1155 589M1181 588L1181 592L1185 591L1185 589L1181 588M1017 601L1017 602L1022 603L1017 601M1043 600L1042 603L1047 604L1043 600M1069 600L1068 604L1072 603L1072 601L1071 600L1069 600M1094 600L1093 604L1097 603L1097 601L1096 600L1094 600M1119 600L1118 604L1122 604L1121 600L1119 600M1143 603L1147 603L1146 600L1143 603z"/>
</svg>
